<svg width="16" height="16" viewBox="0 0 16 16" fill="none" xmlns="http://www.w3.org/2000/svg">
<path d="M10.4097 11.275L8.24512 9.11035L6.08051 11.275C5.96569 11.3898 5.80996 11.4543 5.64758 11.4543C5.48521 11.4543 5.32948 11.3898 5.21466 11.275C5.09984 11.1601 5.03534 11.0044 5.03534 10.842C5.03534 10.6797 5.09984 10.5239 5.21466 10.4091L7.37927 8.24451L5.21466 6.0799C5.09984 5.96508 5.03534 5.80935 5.03534 5.64697C5.03534 5.4846 5.09984 5.32887 5.21466 5.21405C5.32948 5.09923 5.4852 5.03473 5.64758 5.03473C5.80996 5.03473 5.96569 5.09923 6.0805 5.21405L8.24512 7.37866L10.4097 5.21405C10.5245 5.09923 10.6803 5.03473 10.8427 5.03473C11.005 5.03473 11.1608 5.09923 11.2756 5.21405C11.3904 5.32887 11.4549 5.4846 11.4549 5.64697C11.4549 5.80935 11.3904 5.96508 11.2756 6.0799L9.11096 8.24451L11.2756 10.4091C11.3904 10.5239 11.4549 10.6797 11.4549 10.842C11.4549 11.0044 11.3904 11.1601 11.2756 11.275C11.1608 11.3898 11.005 11.4543 10.8427 11.4543C10.6803 11.4543 10.5245 11.3898 10.4097 11.275Z" fill="#F4B410"/>
</svg>
