<svg width="144" height="23" viewBox="0 0 144 23" fill="none" xmlns="http://www.w3.org/2000/svg">
<path d="M12.96 5.52L8.51999 18.36C7.53599 21.216 6.23999 22.68 3.71999 22.68C2.51999 22.68 1.55999 22.32 1.55999 22.32V19.56C1.55999 19.56 2.27999 19.8 3.11999 19.8C4.31999 19.8 4.79999 19.152 5.27999 18L0.23999 5.52H3.83999L6.88799 13.752L9.35999 5.52H12.96Z" fill="black"/>
<path d="M16.5487 9.36H13.1887C13.3807 6.168 15.9487 5.16 18.8287 5.16C21.8287 5.16 24.2287 6.24 24.2287 9.48V18H20.8687V15.6H20.7487C20.7487 15.6 19.9807 18.36 16.7887 18.36C14.5087 18.36 12.8287 17.304 12.8287 15C12.8287 12.672 14.7487 11.616 16.8127 11.088C18.9007 10.56 20.8687 10.392 20.8687 9C20.8687 8.016 20.1487 7.44 18.8287 7.44C17.3887 7.44 16.5967 8.016 16.5487 9.36ZM20.8687 11.712C20.3167 12.216 19.1887 12.48 18.2287 12.72C17.1487 12.984 16.2367 13.536 16.2367 14.64C16.2367 15.6 16.9087 16.2 17.9887 16.2C20.2687 16.2 20.8687 13.56 20.8687 11.712Z" fill="black"/>
<path d="M37.3596 5.52L33.1116 18H28.8396L24.5916 5.52H28.1916L31.0716 15L33.9516 5.52H37.3596Z" fill="black"/>
<path d="M40.59 11.76C40.59 14.016 41.454 15.84 43.59 15.84C45.726 15.84 46.59 14.016 46.59 11.76C46.59 9.504 45.726 7.68 43.59 7.68C41.454 7.68 40.59 9.504 40.59 11.76ZM37.23 11.76C37.23 8.112 39.486 5.16 43.59 5.16C47.694 5.16 49.95 8.112 49.95 11.76C49.95 15.408 47.694 18.36 43.59 18.36C39.486 18.36 37.23 15.408 37.23 11.76Z" fill="black"/>
<path d="M51.0375 18V5.52H54.3975V8.16H56.0775C57.5175 8.16 57.9975 8.16 57.9975 6.6V5.52H61.3575V6.96C61.3575 9.72 60.3975 10.56 56.9175 10.56H54.3975V18H51.0375Z" fill="black"/>
<path d="M61.9566 13.92H65.1966C65.1966 13.92 65.1966 16.08 67.8366 16.08C69.6366 16.08 70.1166 15.24 70.1166 14.52C70.1166 11.88 62.1966 13.92 62.1966 9.12C62.1966 6.96 64.2365 5.16 67.5965 5.16C72.3966 5.16 73.1166 7.92 73.1166 9.12H69.8766C69.8766 9.12 69.8765 7.44 67.5965 7.44C66.2766 7.44 65.5565 8.112 65.5565 8.88C65.5565 11.04 73.4766 9.48 73.4766 14.16C73.4766 16.56 71.4366 18.36 67.8366 18.36C62.9166 18.36 61.9566 15.36 61.9566 13.92Z" fill="black"/>
<path d="M74.5453 18V5.52H77.9053V10.56L82.3453 5.52H86.3053L81.6013 10.392L86.5453 18H82.4413L79.2733 12.792L77.9053 14.208V18H74.5453Z" fill="black"/>
<path d="M90.2597 9.36H86.8997C87.0917 6.168 89.6597 5.16 92.5397 5.16C95.5397 5.16 97.9397 6.24 97.9397 9.48V18H94.5797V15.6H94.4597C94.4597 15.6 93.6917 18.36 90.4997 18.36C88.2197 18.36 86.5397 17.304 86.5397 15C86.5397 12.672 88.4597 11.616 90.5237 11.088C92.6117 10.56 94.5797 10.392 94.5797 9C94.5797 8.016 93.8597 7.44 92.5397 7.44C91.0997 7.44 90.3077 8.016 90.2597 9.36ZM94.5797 11.712C94.0277 12.216 92.8997 12.48 91.9397 12.72C90.8597 12.984 89.9477 13.536 89.9477 14.64C89.9477 15.6 90.6197 16.2 91.6997 16.2C93.9797 16.2 94.5797 13.56 94.5797 11.712Z" fill="black"/>
<path d="M99.2512 16.32C99.2512 15.264 100.115 14.4 101.171 14.4C102.227 14.4 103.091 15.264 103.091 16.32C103.091 17.376 102.227 18.24 101.171 18.24C100.115 18.24 99.2512 17.376 99.2512 16.32Z" fill="black"/>
<path d="M103.816 11.76C103.816 8.112 105.952 5.16 110.056 5.16C114.16 5.16 116.056 8.112 116.056 11.76C116.056 12.048 116.032 12.48 116.032 12.48H107.2C107.344 14.4 108.16 15.84 110.176 15.84C112.216 15.84 112.576 13.92 112.576 13.92H115.936C115.936 13.92 115.216 18.36 110.056 18.36C105.856 18.36 103.816 15.408 103.816 11.76ZM110.056 7.68C108.4 7.68 107.584 8.784 107.296 10.32H112.6C112.384 8.784 111.712 7.68 110.056 7.68Z" fill="black"/>
<path d="M117.131 18V5.52H120.371V7.56H120.491C120.491 7.56 121.571 5.16 124.331 5.16C127.811 5.16 128.771 7.44 128.771 10.32V18H125.411V11.04C125.411 8.88 124.811 7.92 123.251 7.92C121.451 7.92 120.491 9 120.491 11.52V18H117.131Z" fill="black"/>
<path d="M142.455 5.52V16.56C142.455 20.16 140.535 22.68 136.215 22.68C130.455 22.68 130.335 18.36 130.335 18.36H133.695C133.695 18.36 133.815 20.16 136.215 20.16C138.351 20.16 139.095 18.96 139.095 16.8V16.2H138.975C138.975 16.2 137.895 17.88 135.255 17.88C131.655 17.88 129.855 14.76 129.855 11.52C129.855 8.28 131.655 5.16 135.255 5.16C138.015 5.16 139.095 7.2 139.095 7.2H139.215V5.52H142.455ZM139.215 11.52C139.215 9.504 138.255 7.68 136.215 7.68C134.175 7.68 133.215 9.504 133.215 11.52C133.215 13.536 134.175 15.36 136.215 15.36C138.255 15.36 139.215 13.536 139.215 11.52Z" fill="black"/>
</svg>
