<svg width="144" height="23" viewBox="0 0 144 23" fill="none" xmlns="http://www.w3.org/2000/svg">
<path d="M12.9602 5.52016L8.52024 18.3602C7.53623 21.2162 6.24023 22.6802 3.72023 22.6802C2.52023 22.6802 1.56023 22.3202 1.56023 22.3202V19.5602C1.56023 19.5602 2.28023 19.8002 3.12023 19.8002C4.32023 19.8002 4.80023 19.1522 5.28023 18.0002L0.240234 5.52016H3.84023L6.88823 13.7522L9.36023 5.52016H12.9602Z" fill="white"/>
<path d="M16.549 9.36016H13.189C13.381 6.16816 15.949 5.16016 18.829 5.16016C21.829 5.16016 24.229 6.24016 24.229 9.48016V18.0002H20.869V15.6002H20.749C20.749 15.6002 19.981 18.3602 16.789 18.3602C14.509 18.3602 12.829 17.3042 12.829 15.0002C12.829 12.6722 14.749 11.6162 16.813 11.0882C18.901 10.5602 20.869 10.3922 20.869 9.00016C20.869 8.01616 20.149 7.44016 18.829 7.44016C17.389 7.44016 16.597 8.01616 16.549 9.36016ZM20.869 11.7122C20.317 12.2162 19.189 12.4802 18.229 12.7202C17.149 12.9842 16.237 13.5362 16.237 14.6402C16.237 15.6002 16.909 16.2002 17.989 16.2002C20.269 16.2002 20.869 13.5602 20.869 11.7122Z" fill="white"/>
<path d="M37.3598 5.52016L33.1118 18.0002H28.8398L24.5918 5.52016H28.1918L31.0718 15.0002L33.9518 5.52016H37.3598Z" fill="white"/>
<path d="M40.5902 11.7602C40.5902 14.0162 41.4542 15.8402 43.5902 15.8402C45.7262 15.8402 46.5902 14.0162 46.5902 11.7602C46.5902 9.50416 45.7262 7.68016 43.5902 7.68016C41.4542 7.68016 40.5902 9.50416 40.5902 11.7602ZM37.2302 11.7602C37.2302 8.11216 39.4862 5.16016 43.5902 5.16016C47.6942 5.16016 49.9502 8.11216 49.9502 11.7602C49.9502 15.4082 47.6942 18.3602 43.5902 18.3602C39.4862 18.3602 37.2302 15.4082 37.2302 11.7602Z" fill="white"/>
<path d="M51.0377 18.0002V5.52016H54.3977V8.16016H56.0777C57.5177 8.16016 57.9977 8.16016 57.9977 6.60016V5.52016H61.3577V6.96016C61.3577 9.72016 60.3977 10.5602 56.9177 10.5602H54.3977V18.0002H51.0377Z" fill="white"/>
<path d="M61.9568 13.9202H65.1968C65.1968 13.9202 65.1968 16.0802 67.8368 16.0802C69.6368 16.0802 70.1168 15.2402 70.1168 14.5202C70.1168 11.8802 62.1968 13.9202 62.1968 9.12016C62.1968 6.96016 64.2368 5.16016 67.5968 5.16016C72.3968 5.16016 73.1168 7.92016 73.1168 9.12016H69.8768C69.8768 9.12016 69.8768 7.44016 67.5968 7.44016C66.2768 7.44016 65.5568 8.11216 65.5568 8.88016C65.5568 11.0402 73.4768 9.48016 73.4768 14.1602C73.4768 16.5602 71.4368 18.3602 67.8368 18.3602C62.9168 18.3602 61.9568 15.3602 61.9568 13.9202Z" fill="white"/>
<path d="M74.5455 18.0002V5.52016H77.9055V10.5602L82.3456 5.52016H86.3055L81.6015 10.3922L86.5455 18.0002H82.4415L79.2735 12.7922L77.9055 14.2082V18.0002H74.5455Z" fill="white"/>
<path d="M90.2599 9.36016H86.8999C87.0919 6.16816 89.6599 5.16016 92.5399 5.16016C95.5399 5.16016 97.9399 6.24016 97.9399 9.48016V18.0002H94.5799V15.6002H94.4599C94.4599 15.6002 93.6919 18.3602 90.4999 18.3602C88.2199 18.3602 86.5399 17.3042 86.5399 15.0002C86.5399 12.6722 88.4599 11.6162 90.5239 11.0882C92.6119 10.5602 94.5799 10.3922 94.5799 9.00016C94.5799 8.01616 93.8599 7.44016 92.5399 7.44016C91.0999 7.44016 90.3079 8.01616 90.2599 9.36016ZM94.5799 11.7122C94.0279 12.2162 92.8999 12.4802 91.9399 12.7202C90.8599 12.9842 89.9479 13.5362 89.9479 14.6402C89.9479 15.6002 90.6199 16.2002 91.6999 16.2002C93.9799 16.2002 94.5799 13.5602 94.5799 11.7122Z" fill="white"/>
<path d="M99.2515 16.3202C99.2515 15.2642 100.115 14.4002 101.171 14.4002C102.227 14.4002 103.091 15.2642 103.091 16.3202C103.091 17.3762 102.227 18.2402 101.171 18.2402C100.115 18.2402 99.2515 17.3762 99.2515 16.3202Z" fill="white"/>
<path d="M103.816 11.7602C103.816 8.11216 105.952 5.16016 110.056 5.16016C114.16 5.16016 116.056 8.11216 116.056 11.7602C116.056 12.0482 116.032 12.4802 116.032 12.4802H107.2C107.344 14.4002 108.16 15.8402 110.176 15.8402C112.216 15.8402 112.576 13.9202 112.576 13.9202H115.936C115.936 13.9202 115.216 18.3602 110.056 18.3602C105.856 18.3602 103.816 15.4082 103.816 11.7602ZM110.056 7.68016C108.4 7.68016 107.584 8.78416 107.296 10.3202H112.6C112.384 8.78416 111.712 7.68016 110.056 7.68016Z" fill="white"/>
<path d="M117.131 18.0002V5.52016H120.371V7.56016H120.491C120.491 7.56016 121.571 5.16016 124.331 5.16016C127.811 5.16016 128.771 7.44016 128.771 10.3202V18.0002H125.411V11.0402C125.411 8.88016 124.811 7.92016 123.251 7.92016C121.451 7.92016 120.491 9.00016 120.491 11.5202V18.0002H117.131Z" fill="white"/>
<path d="M142.455 5.52016V16.5602C142.455 20.1602 140.535 22.6802 136.215 22.6802C130.455 22.6802 130.335 18.3602 130.335 18.3602H133.695C133.695 18.3602 133.815 20.1602 136.215 20.1602C138.351 20.1602 139.095 18.9602 139.095 16.8002V16.2002H138.975C138.975 16.2002 137.895 17.8802 135.255 17.8802C131.655 17.8802 129.855 14.7602 129.855 11.5202C129.855 8.28016 131.655 5.16016 135.255 5.16016C138.015 5.16016 139.095 7.20016 139.095 7.20016H139.215V5.52016H142.455ZM139.215 11.5202C139.215 9.50416 138.255 7.68016 136.215 7.68016C134.175 7.68016 133.215 9.50416 133.215 11.5202C133.215 13.5362 134.175 15.3602 136.215 15.3602C138.255 15.3602 139.215 13.5362 139.215 11.5202Z" fill="white"/>
</svg>
