<svg width="24" height="24" viewBox="0 0 24 24" fill="none" xmlns="http://www.w3.org/2000/svg">
<path d="M4.71945 12.9693C4.7891 12.8995 4.87182 12.8442 4.96287 12.8065C5.05392 12.7687 5.15151 12.7493 5.25007 12.7493C5.34863 12.7493 5.44623 12.7687 5.53728 12.8065C5.62833 12.8442 5.71104 12.8995 5.7807 12.9693L11.2501 18.4396L11.2501 3.7499C11.2501 3.55099 11.3291 3.36022 11.4697 3.21957C11.6104 3.07892 11.8012 2.9999 12.0001 2.9999C12.199 2.9999 12.3898 3.07892 12.5304 3.21957C12.6711 3.36022 12.7501 3.55099 12.7501 3.7499L12.7501 18.4396L18.2194 12.9693C18.3602 12.8285 18.551 12.7495 18.7501 12.7495C18.9491 12.7495 19.14 12.8285 19.2807 12.9693C19.4214 13.11 19.5005 13.3009 19.5005 13.4999C19.5005 13.6989 19.4214 13.8898 19.2807 14.0305L12.5307 20.7805C12.461 20.8503 12.3783 20.9056 12.2873 20.9433C12.1962 20.9811 12.0986 21.0005 12.0001 21.0005C11.9015 21.0005 11.8039 20.9811 11.7129 20.9433C11.6218 20.9056 11.5391 20.8503 11.4694 20.7805L4.71945 14.0305C4.64971 13.9609 4.59439 13.8782 4.55665 13.7871C4.51891 13.6961 4.49948 13.5985 4.49948 13.4999C4.49948 13.4013 4.51891 13.3037 4.55665 13.2127C4.59439 13.1216 4.64971 13.0389 4.71945 12.9693Z" fill="#000411"/>
</svg>
