<svg width="16" height="16" viewBox="0 0 16 16" fill="none" xmlns="http://www.w3.org/2000/svg">
<path d="M11.9182 8.85597H8.85694V11.9172C8.85694 12.0796 8.79244 12.2353 8.67762 12.3501C8.5628 12.4649 8.40708 12.5294 8.2447 12.5294C8.08232 12.5294 7.92659 12.4649 7.81178 12.3501C7.69696 12.2353 7.63245 12.0796 7.63245 11.9172V8.85597H4.57123C4.40885 8.85597 4.25313 8.79146 4.13831 8.67664C4.02349 8.56183 3.95898 8.4061 3.95898 8.24372C3.95898 8.08134 4.02349 7.92562 4.13831 7.8108C4.25313 7.69598 4.40885 7.63148 4.57123 7.63148H7.63245V4.57025C7.63245 4.40788 7.69696 4.25215 7.81178 4.13733C7.92659 4.02251 8.08232 3.95801 8.2447 3.95801C8.40708 3.95801 8.5628 4.02251 8.67762 4.13733C8.79244 4.25215 8.85694 4.40788 8.85694 4.57025V7.63148H11.9182C12.0805 7.63148 12.2363 7.69598 12.3511 7.8108C12.4659 7.92562 12.5304 8.08134 12.5304 8.24372C12.5304 8.4061 12.4659 8.56183 12.3511 8.67664C12.2363 8.79146 12.0805 8.85597 11.9182 8.85597Z" fill="white"/>
</svg>
