<svg width="30" height="30" viewBox="0 0 30 30" fill="none" xmlns="http://www.w3.org/2000/svg">
<g clip-path="url(#clip0_79_2242)">
<path d="M29.4126 2.45788C29.1751 2.24062 28.8842 2.09047 28.5695 2.02287C28.2549 1.95527 27.9279 1.97264 27.6222 2.07321L1.24402 10.7686C0.525131 11.0055 0.0376305 11.6473 0.00206411 12.4033C-0.0334437 13.1594 0.391654 13.844 1.08505 14.1475L7.60859 17.0017L9.57681 26.1303C9.65855 26.5096 9.85103 26.8473 10.2588 26.9512C10.6712 27.0563 10.9626 26.8309 11.2703 26.6005L16.1114 22.9756L21.7709 27.6068C22.1005 27.8767 22.5034 28.0174 22.9142 28.0174C23.1132 28.0172 23.3109 27.9844 23.4993 27.9203C24.095 27.7183 24.5366 27.2322 24.6805 26.6199L29.952 4.20772C30.0255 3.89442 30.0142 3.56721 29.9194 3.25968C29.8246 2.95216 29.6497 2.67542 29.4126 2.45788ZM11.692 18.6373C11.6888 18.6449 11.6857 18.6535 11.6827 18.6638L10.5914 22.4764L9.37361 16.8282L17.7477 12.1756L11.8929 18.2973C11.8011 18.394 11.7324 18.5102 11.692 18.6373ZM12.0384 23.8243L12.534 22.0925L13.0081 20.4361L14.7068 21.8262L12.0384 23.8243ZM28.2368 3.80424L22.9654 26.2165C22.9628 26.2276 22.9593 26.243 22.9335 26.2517C22.9079 26.2604 22.8955 26.2505 22.8867 26.2432L16.6939 21.1755L16.6934 21.1751L13.8242 18.8272L23.0423 9.1886C23.188 9.03626 23.2742 8.83673 23.2853 8.62624C23.2965 8.41575 23.2318 8.20824 23.1029 8.04139C22.9741 7.87452 22.7898 7.75937 22.5833 7.71685C22.3768 7.67433 22.162 7.70726 21.9777 7.80965L8.32824 15.3934L1.79134 12.5332C1.77142 12.5246 1.76046 12.5197 1.76204 12.486C1.76363 12.4524 1.77499 12.4486 1.79562 12.4418L28.1738 3.74653C28.1866 3.74237 28.201 3.73756 28.2222 3.7569C28.2434 3.77635 28.2399 3.79112 28.2368 3.80424Z" fill="white"/>
</g>
<defs>
<clipPath id="clip0_79_2242">
<rect width="30" height="30" fill="white"/>
</clipPath>
</defs>
</svg>
