<svg width="124" height="123" viewBox="0 0 124 123" fill="none" xmlns="http://www.w3.org/2000/svg">
<path d="M61.9999 122.071C95.7089 122.071 123.035 94.7445 123.035 61.0355C123.035 27.3265 95.7089 0 61.9999 0C28.2909 0 0.964355 27.3265 0.964355 61.0355C0.964355 94.7445 28.2909 122.071 61.9999 122.071Z" fill="url(#paint0_linear_98_793)"/>
<path fill-rule="evenodd" clip-rule="evenodd" d="M62.0003 35.4944C44.5664 35.4944 30.3829 49.6772 30.3829 67.1097C30.3829 84.5423 44.5664 98.7258 61.9996 98.7258C79.4336 98.7258 93.6142 84.5423 93.6142 67.1097C93.6142 49.6765 79.4329 35.4944 62.0003 35.4944ZM62.0003 100.447C43.6177 100.447 28.6621 85.491 28.6621 67.1097C28.6621 48.7271 43.6184 33.7729 61.9996 33.7729C80.3816 33.7729 95.3357 48.7278 95.3357 67.1097C95.3357 85.4917 80.3816 100.447 62.0003 100.447Z" fill="white"/>
<path fill-rule="evenodd" clip-rule="evenodd" d="M62.0001 45.3453C61.5243 45.3453 61.1387 44.9604 61.1387 44.4846V41.1613C61.1387 40.933 61.2294 40.7141 61.3908 40.5526C61.5522 40.3912 61.7711 40.3005 61.9994 40.3005C62.2277 40.3005 62.4466 40.3912 62.6081 40.5526C62.7695 40.7141 62.8602 40.933 62.8602 41.1613V44.4846C62.8602 44.9604 62.4745 45.3453 62.0001 45.3453ZM73.3109 48.3767C73.1599 48.3765 73.0117 48.3367 72.881 48.2611C72.7503 48.1856 72.6419 48.077 72.5665 47.9462C72.4911 47.8154 72.4514 47.6671 72.4515 47.5162C72.4516 47.3652 72.4914 47.217 72.5669 47.0863L74.2286 44.207C74.2826 44.1046 74.3568 44.0141 74.4466 43.9409C74.5365 43.8678 74.6402 43.8136 74.7515 43.7815C74.8628 43.7494 74.9794 43.7401 75.0944 43.7542C75.2094 43.7682 75.3203 43.8053 75.4206 43.8633C75.5209 43.9213 75.6085 43.9989 75.6781 44.0915C75.7477 44.1841 75.7978 44.2898 75.8256 44.4023C75.8534 44.5147 75.8581 44.6317 75.8396 44.746C75.8211 44.8604 75.7797 44.9698 75.7179 45.0678L74.057 47.9463C73.9815 48.0773 73.8727 48.186 73.7417 48.2616C73.6107 48.3372 73.4621 48.3769 73.3109 48.3767ZM87.9478 67.9704H84.6245C84.3962 67.9704 84.1773 67.8797 84.0159 67.7183C83.8545 67.5569 83.7638 67.338 83.7638 67.1097C83.7638 66.8814 83.8545 66.6625 84.0159 66.501C84.1773 66.3396 84.3962 66.2489 84.6245 66.2489H87.9478C88.1761 66.2489 88.395 66.3396 88.5565 66.501C88.7179 66.6625 88.8086 66.8814 88.8086 67.1097C88.8086 67.338 88.7179 67.5569 88.5565 67.7183C88.395 67.8797 88.1761 67.9704 87.9478 67.9704Z" fill="white"/>
<path fill-rule="evenodd" clip-rule="evenodd" d="M62.0003 42.0213C48.1664 42.0213 36.9119 53.2758 36.9119 67.1097C36.9119 80.9435 48.1657 92.1973 61.9996 92.1973C75.8334 92.1973 87.0872 80.9435 87.0872 67.1097C87.0872 53.2758 75.8342 42.0213 62.0003 42.0213ZM62.0003 93.9181C47.2177 93.9181 35.1904 81.8922 35.1904 67.1097C35.1912 52.3271 47.2177 40.2998 62.0003 40.2998C76.7814 40.2998 88.8087 52.3271 88.8087 67.1097C88.8087 81.8922 76.7814 93.9181 62.0003 93.9174V93.9181Z" fill="white"/>
<path fill-rule="evenodd" clip-rule="evenodd" d="M84.4707 80.9443C84.3258 80.9443 84.1765 80.9075 84.0417 80.829L81.1632 79.1666C81.0612 79.1123 80.9712 79.0381 80.8985 78.9483C80.8258 78.8585 80.7719 78.755 80.7401 78.6439C80.7082 78.5328 80.6991 78.4165 80.7131 78.3018C80.7272 78.1871 80.7642 78.0765 80.822 77.9764C80.8797 77.8763 80.9571 77.7889 81.0493 77.7194C81.1416 77.6498 81.2469 77.5996 81.359 77.5716C81.4711 77.5436 81.5877 77.5385 81.7018 77.5565C81.8159 77.5745 81.9252 77.6153 82.0232 77.6765L84.9025 79.3382C85.3134 79.576 85.4547 80.1023 85.2182 80.5139C85.1424 80.645 85.0334 80.7538 84.9021 80.8293C84.7709 80.9049 84.6221 80.9445 84.4707 80.9443ZM74.9751 90.442C74.6781 90.442 74.389 90.2877 74.2297 90.0116L72.5673 87.1331C72.5108 87.0353 72.4741 86.9273 72.4594 86.8153C72.4446 86.7032 72.452 86.5894 72.4812 86.4803C72.5105 86.3711 72.5609 86.2688 72.6297 86.1791C72.6984 86.0895 72.7842 86.0142 72.882 85.9577C72.9798 85.9012 73.0879 85.8645 73.1999 85.8497C73.3119 85.835 73.4257 85.8424 73.5349 85.8716C73.644 85.9008 73.7463 85.9513 73.836 86.02C73.9257 86.0888 74.0009 86.1745 74.0574 86.2724L75.7191 89.1516C75.7946 89.2823 75.8344 89.4306 75.8345 89.5815C75.8346 89.7325 75.7949 89.8808 75.7195 90.0115C75.6441 90.1423 75.5357 90.2509 75.405 90.3265C75.2743 90.4021 75.1261 90.4419 74.9751 90.442ZM62.0005 93.9181C61.5248 93.9181 61.1391 93.5346 61.1391 93.0588V89.7348C61.1391 89.5065 61.2298 89.2876 61.3912 89.1262C61.5526 88.9648 61.7715 88.8741 61.9998 88.8741C62.2281 88.8741 62.447 88.9648 62.6085 89.1262C62.7699 89.2876 62.8606 89.5065 62.8606 89.7348V93.0581C62.8606 93.5339 62.4749 93.9181 62.0005 93.9181ZM49.0245 90.442C48.8734 90.4423 48.7249 90.4028 48.594 90.3273C48.463 90.2519 48.3543 90.1432 48.2789 90.0123C48.2034 89.8813 48.1638 89.7328 48.1641 89.5817C48.1644 89.4306 48.2046 89.2822 48.2806 89.1516L49.943 86.2724C50.0617 86.0842 50.2487 85.9493 50.4647 85.896C50.6807 85.8426 50.909 85.875 51.1017 85.9864C51.2943 86.0977 51.4364 86.2793 51.498 86.4931C51.5597 86.7069 51.5361 86.9363 51.4323 87.1331L49.7707 90.0116C49.6953 90.1426 49.5867 90.2514 49.4558 90.327C49.3249 90.4025 49.1757 90.4422 49.0245 90.442ZM39.5297 80.9443C39.3403 80.9445 39.1561 80.8822 39.0057 80.7671C38.8553 80.6519 38.747 80.4904 38.6977 80.3075C38.6485 80.1246 38.6609 79.9305 38.7331 79.7554C38.8053 79.5803 38.9333 79.4339 39.0972 79.3389L41.9764 77.6765C42.0744 77.6153 42.1837 77.5745 42.2979 77.5565C42.412 77.5385 42.5286 77.5436 42.6407 77.5716C42.7528 77.5996 42.8581 77.6498 42.9503 77.7194C43.0426 77.7889 43.1199 77.8763 43.1777 77.9764C43.2354 78.0765 43.2724 78.1871 43.2865 78.3018C43.3006 78.4165 43.2914 78.5328 43.2596 78.6439C43.2277 78.755 43.1739 78.8585 43.1012 78.9483C43.0285 79.0381 42.9384 79.1123 42.8364 79.1666L39.9579 80.829C39.8217 80.9068 39.6746 80.9443 39.5297 80.9443ZM39.3754 67.9705H36.0521C35.8239 67.9705 35.6049 67.8798 35.4435 67.7183C35.2821 67.5569 35.1914 67.338 35.1914 67.1097C35.1914 66.8814 35.2821 66.6625 35.4435 66.5011C35.6049 66.3397 35.8239 66.249 36.0521 66.249H39.3754C39.6037 66.249 39.8227 66.3397 39.9841 66.5011C40.1455 66.6625 40.2362 66.8814 40.2362 67.1097C40.2362 67.338 40.1455 67.5569 39.9841 67.7183C39.8227 67.8798 39.6037 67.9705 39.3754 67.9705ZM42.4046 56.6583C42.2597 56.6583 42.1105 56.6208 41.9764 56.5429L39.0972 54.8806C38.996 54.8258 38.9068 54.7513 38.8349 54.6615C38.763 54.5717 38.7098 54.4684 38.6785 54.3577C38.6472 54.247 38.6384 54.1311 38.6527 54.0169C38.6669 53.9028 38.7039 53.7926 38.7615 53.693C38.819 53.5934 38.896 53.5063 38.9877 53.4369C39.0795 53.3675 39.1843 53.3172 39.2958 53.289C39.4074 53.2608 39.5234 53.2553 39.6371 53.2727C39.7509 53.2901 39.8599 53.3302 39.9579 53.3905L42.8364 55.0521C43.0006 55.1469 43.1289 55.2933 43.2014 55.4685C43.2739 55.6437 43.2865 55.8379 43.2372 56.021C43.188 56.2041 43.0797 56.3658 42.9292 56.481C42.7786 56.5963 42.5942 56.6586 42.4046 56.6583ZM50.6884 48.3767C50.3906 48.3767 50.1023 48.2224 49.943 47.9463L48.2813 45.0678C48.2248 44.97 48.1881 44.8621 48.1733 44.7501C48.1585 44.6381 48.1659 44.5243 48.1951 44.4152C48.2243 44.3061 48.2747 44.2038 48.3434 44.1141C48.4121 44.0245 48.4978 43.9493 48.5956 43.8928C48.6934 43.8362 48.8014 43.7995 48.9134 43.7848C49.0253 43.77 49.1391 43.7774 49.2482 43.8066C49.3573 43.8357 49.4596 43.8861 49.5493 43.9549C49.6389 44.0236 49.7141 44.1093 49.7707 44.2071L51.4323 47.0856C51.5079 47.2163 51.5477 47.3645 51.5477 47.5155C51.5478 47.6664 51.5082 47.8147 51.4328 47.9455C51.3574 48.0763 51.2489 48.1849 51.1182 48.2605C50.9876 48.336 50.8393 48.3766 50.6884 48.3767ZM54.943 27.3635H69.058L71.6821 23.3445H52.3183L54.943 27.3635ZM69.5237 29.085H54.4766C54.1861 29.085 53.9151 28.9379 53.7557 28.6957L50.0071 22.9545C49.9222 22.8249 49.874 22.6746 49.8677 22.5198C49.8613 22.3649 49.8971 22.2112 49.9711 22.0751C50.0447 21.9385 50.1539 21.8244 50.2872 21.7449C50.4205 21.6654 50.5728 21.6236 50.728 21.6238H73.2724C73.4274 21.6239 73.5796 21.6658 73.7128 21.7453C73.846 21.8247 73.9552 21.9386 74.029 22.075C74.1028 22.2114 74.1384 22.3652 74.1319 22.5202C74.1255 22.6751 74.0773 22.8254 73.9925 22.9553L70.2439 28.695C70.1656 28.8145 70.0587 28.9127 69.933 28.9806C69.8073 29.0486 69.6667 29.0849 69.5237 29.085Z" fill="white"/>
<path fill-rule="evenodd" clip-rule="evenodd" d="M65.6192 35.6934C65.1434 35.6934 64.7585 35.3085 64.7585 34.8334V29.085H59.2415V34.8334C59.2415 35.0617 59.1508 35.2806 58.9894 35.442C58.828 35.6034 58.6091 35.6941 58.3808 35.6941C58.1525 35.6941 57.9336 35.6034 57.7722 35.442C57.6107 35.2806 57.52 35.0617 57.52 34.8334V28.2243C57.52 27.7492 57.905 27.3643 58.3801 27.3643H65.6192C66.095 27.3643 66.4793 27.7492 66.4793 28.2243V34.8334C66.4793 35.3085 66.0943 35.6934 65.6192 35.6934ZM30.3404 43.3334L32.5939 43.8056L38.6962 37.7025L38.2226 35.4505L30.3404 43.3334ZM32.8714 45.6042C32.8137 45.6042 32.7546 45.5984 32.6955 45.5854L28.4314 44.6915C28.2794 44.66 28.1388 44.5879 28.0244 44.4829C27.9101 44.3779 27.8263 44.2439 27.7819 44.0951C27.7376 43.9463 27.7343 43.7883 27.7725 43.6378C27.8107 43.4873 27.889 43.35 27.9989 43.2404L38.1317 33.1097C38.2413 33.0002 38.3785 32.9223 38.5287 32.8843C38.679 32.8463 38.8367 32.8495 38.9852 32.8938C39.1337 32.938 39.2676 33.0216 39.3725 33.1356C39.4775 33.2496 39.5496 33.3899 39.5814 33.5416L40.4768 37.8056C40.5359 38.0896 40.4479 38.3852 40.2432 38.5907L33.4813 45.3519C33.3184 45.5148 33.097 45.6042 32.8714 45.6042Z" fill="white"/>
<path fill-rule="evenodd" clip-rule="evenodd" d="M37.4679 46.6906C37.2473 46.6906 37.0267 46.6063 36.858 46.4383L34.0192 43.598C33.8581 43.4365 33.7676 43.2177 33.7676 42.9896C33.7676 42.7614 33.8581 42.5426 34.0192 42.3811L37.2704 39.1278C37.3503 39.0478 37.4452 38.9843 37.5497 38.9411C37.6541 38.8978 37.7661 38.8755 37.8792 38.8755C37.9923 38.8755 38.1042 38.8978 38.2087 38.9411C38.3131 38.9843 38.408 39.0478 38.488 39.1278L41.3297 41.9681C41.4886 42.13 41.5772 42.3482 41.5761 42.5751C41.575 42.802 41.4843 43.0193 41.3238 43.1797C41.1633 43.3401 40.946 43.4307 40.719 43.4316C40.4921 43.4326 40.274 43.3439 40.1121 43.1849L37.8781 40.953L35.8438 42.9896L38.0756 45.2214C38.1949 45.3421 38.276 45.4952 38.3087 45.6617C38.3413 45.8282 38.3242 46.0006 38.2593 46.1574C38.1944 46.3142 38.0847 46.4483 37.9439 46.543C37.8032 46.6378 37.6376 46.6896 37.4679 46.6906ZM85.304 37.7026L91.4063 43.8056L93.6598 43.3334L85.7754 35.4505L85.304 37.7026ZM91.1287 45.6035C90.9024 45.6035 90.6818 45.5148 90.5189 45.3519L83.7569 38.59C83.6563 38.4887 83.5824 38.364 83.5417 38.2271C83.5011 38.0903 83.495 37.9454 83.5241 37.8056L84.418 33.5416C84.4495 33.3896 84.5215 33.249 84.6265 33.1347C84.7315 33.0204 84.8655 32.9367 85.0142 32.8924C85.1629 32.8481 85.3209 32.845 85.4713 32.8832C85.6217 32.9215 85.7589 32.9998 85.8684 33.1098L96.0005 43.2404C96.2225 43.4639 96.3054 43.7919 96.2153 44.0947C96.1259 44.3975 95.8765 44.626 95.5687 44.6909L91.3039 45.5855C91.2461 45.5979 91.1871 45.6042 91.128 45.6042L91.1287 45.6035Z" fill="white"/>
<path fill-rule="evenodd" clip-rule="evenodd" d="M86.5323 46.6905C86.3619 46.691 86.1952 46.6407 86.0533 46.5462C85.9115 46.4517 85.801 46.3171 85.7359 46.1596C85.6707 46.0022 85.6539 45.8289 85.6875 45.6618C85.7211 45.4947 85.8036 45.3414 85.9246 45.2213L88.1565 42.9894L86.1199 40.9529L83.8881 43.1848C83.7254 43.3394 83.5088 43.4244 83.2844 43.4216C83.06 43.4188 82.8456 43.3285 82.6868 43.1699C82.528 43.0113 82.4375 42.797 82.4344 42.5726C82.4314 42.3482 82.5161 42.1315 82.6705 41.9687L85.5122 39.1284C85.6736 38.9671 85.8925 38.8765 86.1207 38.8765C86.3489 38.8765 86.5677 38.9671 86.7291 39.1284L89.981 42.381C90.0611 42.4608 90.1246 42.5557 90.1679 42.6601C90.2112 42.7645 90.2335 42.8764 90.2335 42.9894C90.2335 43.1025 90.2112 43.2144 90.1679 43.3188C90.1246 43.4232 90.0611 43.5181 89.981 43.5979L87.1414 46.4382C86.9728 46.6061 86.7522 46.6905 86.5323 46.6905ZM81.5935 56.6582C81.4042 56.6579 81.2204 56.5953 81.0703 56.48C80.9203 56.3647 80.8124 56.2031 80.7634 56.0204C80.7144 55.8376 80.727 55.6437 80.7992 55.4688C80.8715 55.2939 80.9994 55.1477 81.1631 55.0528L84.0423 53.3897C84.4533 53.1518 84.9795 53.2938 85.2181 53.7047C85.4553 54.1164 85.3133 54.6426 84.9024 54.8798L82.0239 56.5422C81.8869 56.6207 81.7405 56.6582 81.5935 56.6582ZM61.077 54.3146C54.4066 54.7587 49.1145 60.3275 49.1145 67.1097C49.1145 74.1802 54.8672 79.9328 61.937 79.9328C66.3741 79.9328 70.4594 77.6548 72.795 73.9329L61.5304 67.8673C61.3933 67.7939 61.2786 67.6847 61.1986 67.5513C61.1187 67.4178 61.0764 67.2652 61.0763 67.1097L61.077 54.3146ZM61.937 81.6536C53.9171 81.6536 47.3931 75.1296 47.3931 67.1097C47.3931 59.0898 53.9171 52.565 61.937 52.565C62.4128 52.565 62.7977 52.95 62.7977 53.4258V66.5957L74.394 72.8386C74.8135 73.0642 74.9692 73.5854 74.7436 74.0043C73.5003 76.3183 71.6527 78.2519 69.3975 79.599C67.1423 80.9462 64.5639 81.6558 61.937 81.6536Z" fill="white"/>
<defs>
<linearGradient id="paint0_linear_98_793" x1="-4.67758" y1="1.97133e-06" x2="138.06" y2="8.96173" gradientUnits="userSpaceOnUse">
<stop stop-color="#EF1515"/>
<stop offset="1" stop-color="#F4B410"/>
</linearGradient>
</defs>
</svg>
