<svg width="126" height="125" viewBox="0 0 126 125" fill="none" xmlns="http://www.w3.org/2000/svg">
<path d="M63.0004 123.536C96.7093 123.536 124.036 96.2093 124.036 62.5004C124.036 28.7914 96.7093 1.46484 63.0004 1.46484C29.2914 1.46484 1.96484 28.7914 1.96484 62.5004C1.96484 96.2093 29.2914 123.536 63.0004 123.536Z" fill="url(#paint0_linear_98_778)"/>
<path fill-rule="evenodd" clip-rule="evenodd" d="M91.1879 101.911H34.8129C34.5846 101.911 34.3657 101.821 34.2043 101.659C34.0428 101.498 33.9521 101.279 33.9521 101.051V91.3835C33.9521 82.0242 41.5655 74.4102 50.9255 74.4102H55.9768C56.205 74.4102 56.424 74.5008 56.5854 74.6623C56.7468 74.8237 56.8375 75.0426 56.8375 75.2709C56.8375 75.4992 56.7468 75.7181 56.5854 75.8795C56.424 76.041 56.205 76.1316 55.9768 76.1316H50.9262C42.5163 76.1316 35.6744 82.9729 35.6744 91.3835V100.191H90.3286V91.3835C90.3286 82.9729 83.4859 76.1316 75.0767 76.1316H70.0247C69.7964 76.1316 69.5775 76.041 69.4161 75.8795C69.2547 75.7181 69.164 75.4992 69.164 75.2709C69.164 75.0426 69.2547 74.8237 69.4161 74.6623C69.5775 74.5008 69.7964 74.4102 70.0247 74.4102H75.0767C84.436 74.4102 92.0493 82.0249 92.0493 91.3835V101.051C92.0493 101.526 91.6629 101.911 91.1879 101.911Z" fill="white"/>
<path fill-rule="evenodd" clip-rule="evenodd" d="M63.0003 86.0257C62.8629 86.026 62.7276 85.9932 62.6055 85.9303C62.4834 85.8673 62.3783 85.7759 62.2989 85.6638L55.2752 75.7689C55.2097 75.6769 55.1629 75.5728 55.1376 75.4627C55.1122 75.3526 55.1089 75.2386 55.1277 75.1271C55.1465 75.0157 55.1871 74.9091 55.2472 74.8134C55.3073 74.7177 55.3857 74.6348 55.4778 74.5694C55.5701 74.5038 55.6743 74.457 55.7846 74.4317C55.895 74.4064 56.0092 74.4031 56.1208 74.422C56.2324 74.4409 56.3392 74.4815 56.4351 74.5417C56.5309 74.6019 56.614 74.6804 56.6795 74.7727L63.0003 83.6785L69.3225 74.7727C69.3879 74.6806 69.4708 74.6023 69.5665 74.5423C69.6622 74.4823 69.7687 74.4417 69.8801 74.4228C69.9914 74.404 70.1054 74.4073 70.2155 74.4325C70.3256 74.4577 70.4296 74.5043 70.5217 74.5697C70.6138 74.6351 70.692 74.7181 70.7521 74.8137C70.8121 74.9094 70.8527 75.0159 70.8715 75.1273C70.8904 75.2387 70.8871 75.3526 70.8619 75.4627C70.8367 75.5728 70.79 75.6769 70.7246 75.7689L63.701 85.6638C63.6217 85.7758 63.5166 85.8671 63.3947 85.9301C63.2728 85.9931 63.1375 86.0259 63.0003 86.0257Z" fill="white"/>
<path fill-rule="evenodd" clip-rule="evenodd" d="M70.0242 76.131C69.796 76.131 69.5772 76.0404 69.4158 75.8791C69.2544 75.7179 69.1636 75.4991 69.1635 75.271V70.0676C69.1635 69.8394 69.2541 69.6206 69.4155 69.4592C69.5768 69.2979 69.7956 69.2072 70.0238 69.2072C70.252 69.2072 70.4709 69.2979 70.6322 69.4592C70.7936 69.6206 70.8842 69.8394 70.8842 70.0676V75.271C70.8842 75.746 70.4985 76.131 70.0242 76.131ZM55.977 76.131C55.5012 76.131 55.1162 75.746 55.1162 75.271V70.0186C55.1162 69.7904 55.2069 69.5716 55.3682 69.4102C55.5296 69.2488 55.7484 69.1582 55.9766 69.1582C56.2048 69.1582 56.4236 69.2488 56.585 69.4102C56.7463 69.5716 56.837 69.7904 56.837 70.0186V75.271C56.837 75.746 56.452 76.131 55.977 76.131Z" fill="white"/>
<path fill-rule="evenodd" clip-rule="evenodd" d="M63.0536 72.8999C59.5313 72.8999 56.2361 71.6614 53.7786 69.4129C51.0789 66.9431 49.6191 63.4742 49.5441 59.3637C47.0549 56.5162 47.0542 53.5231 49.5427 50.6748V47.5548C49.5427 47.3267 49.6333 47.1078 49.7947 46.9465C49.956 46.7851 50.1749 46.6945 50.4031 46.6945C50.6313 46.6945 50.8501 46.7851 51.0115 46.9465C51.1728 47.1078 51.2635 47.3267 51.2635 47.5548V51.005C51.2635 51.2213 51.1813 51.4311 51.0328 51.5904C48.8615 53.9282 48.8615 56.1067 51.0328 58.4446C51.1813 58.6032 51.2635 58.813 51.2635 59.0307C51.2635 67.3771 57.3744 71.1791 63.0536 71.1791C66.1304 71.1791 68.9872 70.1079 71.0973 68.1636C73.4784 65.9707 74.7363 62.8125 74.7363 59.03C74.7363 58.813 74.8185 58.6039 74.967 58.4446C77.1383 56.106 77.1383 53.9289 74.967 51.5904C74.8194 51.4313 74.7377 51.222 74.7385 51.005V47.5548C74.7352 47.4398 74.7549 47.3252 74.7967 47.2179C74.8384 47.1106 74.9013 47.0127 74.9815 46.9302C75.0617 46.8476 75.1577 46.7819 75.2637 46.7371C75.3698 46.6923 75.4837 46.6692 75.5989 46.6692C75.714 46.6692 75.828 46.6923 75.934 46.7371C76.0401 46.7819 76.136 46.8476 76.2162 46.9302C76.2965 47.0127 76.3593 47.1106 76.401 47.2179C76.4428 47.3252 76.4626 47.4398 76.4592 47.5548V50.6741C78.9456 53.5224 78.9456 56.5162 76.4556 59.3637C76.3821 63.493 74.9353 66.9684 72.2644 69.4295C69.8336 71.6671 66.5636 72.8999 63.0536 72.8999Z" fill="white"/>
<path fill-rule="evenodd" clip-rule="evenodd" d="M63.0039 48.9765C58.4363 48.9765 53.8666 48.7574 49.3293 48.3191C49.1164 48.2985 48.9187 48.1994 48.7748 48.0411C48.6309 47.8828 48.551 47.6766 48.5508 47.4626V37.3969C48.5508 37.1686 48.6415 36.9497 48.8029 36.7882C48.9643 36.6268 49.1832 36.5361 49.4115 36.5361C49.6398 36.5361 49.8587 36.6268 50.0202 36.7882C50.1816 36.9497 50.2723 37.1686 50.2723 37.3969V46.679C58.7407 47.4472 67.2613 47.4472 75.7297 46.679V37.3969C75.7362 37.173 75.8297 36.9605 75.9904 36.8044C76.151 36.6483 76.3662 36.561 76.5901 36.561C76.8141 36.561 77.0292 36.6483 77.1899 36.8044C77.3505 36.9605 77.444 37.173 77.4505 37.3969V47.4634C77.4505 47.9067 77.1131 48.2773 76.6719 48.3198C72.139 48.7581 67.5714 48.9772 63.0039 48.9765Z" fill="white"/>
<path fill-rule="evenodd" clip-rule="evenodd" d="M49.5492 36.5361H76.452L84.562 33.8666L63.0003 24.8808L41.4392 33.8674L49.5492 36.5361ZM76.5883 38.2576H49.4122C49.3207 38.2576 49.2291 38.2432 49.1426 38.2143L38.707 34.7793C38.5403 34.7244 38.3943 34.6199 38.2886 34.4798C38.183 34.3396 38.1227 34.1705 38.1159 33.9951C38.1091 33.8197 38.156 33.6464 38.2505 33.4985C38.3449 33.3506 38.4823 33.235 38.6443 33.1674L62.6694 23.1542C62.7739 23.111 62.8856 23.0894 62.9959 23.0894H63.0067C63.1178 23.0894 63.2281 23.111 63.3326 23.155L87.3577 33.1681C87.5197 33.2356 87.6572 33.3511 87.7516 33.4991C87.8461 33.647 87.893 33.8204 87.8861 33.9958C87.8792 34.1712 87.8188 34.3402 87.713 34.4803C87.6072 34.6204 87.461 34.7247 87.2942 34.7793L76.8601 38.2143C76.7714 38.2432 76.6798 38.2576 76.589 38.2576H76.5883Z" fill="white"/>
<path fill-rule="evenodd" clip-rule="evenodd" d="M87.0253 42.7969C86.5495 42.7969 86.1646 42.4119 86.1646 41.9369V33.961C86.1646 33.7328 86.2552 33.5139 86.4165 33.3526C86.5779 33.1912 86.7967 33.1006 87.0249 33.1006C87.2531 33.1006 87.472 33.1912 87.6333 33.3526C87.7947 33.5139 87.8853 33.7328 87.8853 33.961V41.9354C87.8853 42.4112 87.5004 42.7969 87.0253 42.7969Z" fill="white"/>
<path fill-rule="evenodd" clip-rule="evenodd" d="M88.7837 46.3113C88.6707 46.3114 88.5588 46.2892 88.4544 46.246C88.35 46.2028 88.2551 46.1395 88.1751 46.0596C88.0952 45.9798 88.0318 45.8849 87.9885 45.7805C87.9453 45.6761 87.923 45.5642 87.923 45.4512V42.7969H86.1272V45.452C86.1272 45.6803 86.0366 45.8992 85.8751 46.0606C85.7137 46.222 85.4948 46.3127 85.2665 46.3127C85.0382 46.3127 84.8193 46.222 84.6579 46.0606C84.4964 45.8992 84.4058 45.6803 84.4058 45.452V41.9362C84.4058 41.4611 84.7914 41.0762 85.2665 41.0762H88.7837C89.2588 41.0762 89.6437 41.4611 89.6437 41.9369V45.452C89.6437 45.9263 89.2588 46.312 88.7837 46.3113Z" fill="white"/>
<path fill-rule="evenodd" clip-rule="evenodd" d="M85.2144 46.3114V54.8719C85.2148 55.1008 85.3059 55.3203 85.4678 55.4822C85.6297 55.6441 85.8491 55.7352 86.078 55.7355H87.9718C88.4476 55.7355 88.8354 55.3484 88.8354 54.8719V46.3114H85.2144ZM87.9718 57.4563H86.0788C85.3935 57.4555 84.7365 57.183 84.2519 56.6986C83.7673 56.2141 83.4946 55.5572 83.4936 54.8719V45.4521C83.4936 44.9763 83.8786 44.592 84.3537 44.592H89.6955C90.1712 44.592 90.5562 44.977 90.5562 45.4528V54.8726C90.5552 55.5578 90.2827 56.2146 89.7982 56.699C89.3137 57.1835 88.6569 57.4554 87.9718 57.4563ZM43.485 101.911C43.2569 101.911 43.0381 101.82 42.8768 101.659C42.7156 101.498 42.625 101.279 42.625 101.051V91.416C42.6315 91.1921 42.725 90.9795 42.8856 90.8235C43.0463 90.6674 43.2614 90.5801 43.4854 90.5801C43.7094 90.5801 43.9245 90.6674 44.0851 90.8235C44.2458 90.9795 44.3393 91.1921 44.3458 91.416V101.051C44.3458 101.526 43.9601 101.911 43.485 101.911ZM82.5147 101.911C82.0389 101.911 81.6539 101.526 81.6539 101.051V91.416C81.6539 91.1877 81.7446 90.9687 81.906 90.8073C82.0675 90.6459 82.2864 90.5552 82.5147 90.5552C82.743 90.5552 82.9619 90.6459 83.1233 90.8073C83.2847 90.9687 83.3754 91.1877 83.3754 91.416V101.051C83.3754 101.526 82.9897 101.911 82.5147 101.911Z" fill="white"/>
<defs>
<linearGradient id="paint0_linear_98_778" x1="-3.67709" y1="1.46485" x2="139.06" y2="10.4266" gradientUnits="userSpaceOnUse">
<stop stop-color="#EF1515"/>
<stop offset="1" stop-color="#F4B410"/>
</linearGradient>
</defs>
</svg>
