<svg width="126" height="125" viewBox="0 0 126 125" fill="none" xmlns="http://www.w3.org/2000/svg">
<g clip-path="url(#clip0_98_805)">
<path d="M65.0004 123.536C98.7093 123.536 126.036 96.2093 126.036 62.5004C126.036 28.7914 98.7093 1.46484 65.0004 1.46484C31.2914 1.46484 3.96484 28.7914 3.96484 62.5004C3.96484 96.2093 31.2914 123.536 65.0004 123.536Z" fill="url(#paint0_linear_98_805)"/>
<path fill-rule="evenodd" clip-rule="evenodd" d="M44.4375 30.756C44.2137 30.7561 43.9988 30.6688 43.8384 30.5127C43.678 30.3567 43.5849 30.1442 43.5789 29.9205C43.5519 29.0304 43.5379 28.14 43.5371 27.2496C43.5383 26.1464 43.977 25.0887 44.7571 24.3086C45.5372 23.5285 46.5949 23.0898 47.6981 23.0886H82.3022C83.4052 23.09 84.4627 23.5288 85.2425 24.3089C86.0223 25.089 86.4608 26.1466 86.4617 27.2496C86.4625 28.0829 86.4495 28.9559 86.4228 29.919C86.4163 30.1472 86.3194 30.3635 86.1535 30.5203C85.9875 30.677 85.7661 30.7614 85.5379 30.7549C85.3097 30.7484 85.0935 30.6515 84.9367 30.4856C84.78 30.3196 84.6955 30.0982 84.702 29.87C84.7287 28.9235 84.7417 28.0671 84.7417 27.2496C84.7413 26.6026 84.4841 25.9822 84.0265 25.5248C83.5689 25.0674 82.9485 24.8103 82.3015 24.8101H47.6988C47.0519 24.8105 46.4315 25.0676 45.974 25.525C45.5165 25.9824 45.2592 26.6027 45.2586 27.2496C45.2586 28.0563 45.2708 28.9148 45.2975 29.8722C45.301 29.9852 45.2821 30.0977 45.2419 30.2033C45.2017 30.309 45.1411 30.4056 45.0635 30.4877C44.9858 30.5699 44.8927 30.6359 44.7895 30.6819C44.6863 30.7279 44.575 30.7531 44.462 30.756H44.4375ZM49.1896 54.0227C48.8652 54.0227 48.5531 53.8381 48.4082 53.5246C46.3861 49.1661 44.9717 43.9749 44.2054 38.091C44.1871 37.9773 44.1919 37.8611 44.2194 37.7492C44.2469 37.6374 44.2966 37.5322 44.3655 37.4399C44.4344 37.3476 44.5211 37.2701 44.6205 37.2119C44.7199 37.1537 44.83 37.1161 44.9442 37.1012C45.0584 37.0864 45.1744 37.0946 45.2854 37.1254C45.3964 37.1562 45.5001 37.2089 45.5903 37.2805C45.6805 37.3521 45.7555 37.4411 45.8107 37.5422C45.8659 37.6433 45.9002 37.7544 45.9117 37.869C46.655 43.5785 48.021 48.6016 49.9696 52.7986C50.0303 52.9298 50.057 53.0741 50.0473 53.2183C50.0376 53.3625 49.9918 53.502 49.9142 53.6238C49.8365 53.7457 49.7294 53.8461 49.6028 53.9158C49.4762 53.9855 49.3341 54.0223 49.1896 54.0227ZM80.8013 54.0263C80.6568 54.0263 80.5146 53.9899 80.3878 53.9205C80.2611 53.851 80.1539 53.7507 80.0761 53.6288C79.9984 53.507 79.9526 53.3675 79.943 53.2233C79.9334 53.079 79.9604 52.9347 80.0213 52.8037C81.9735 48.6031 83.341 43.5763 84.0857 37.8668C84.1004 37.7548 84.137 37.6468 84.1934 37.5489C84.2498 37.451 84.325 37.3651 84.4146 37.2963C84.5042 37.2274 84.6065 37.1769 84.7156 37.1476C84.8247 37.1183 84.9386 37.1107 85.0506 37.1254C85.1626 37.1401 85.2707 37.1767 85.3686 37.2331C85.4665 37.2896 85.5523 37.3647 85.6212 37.4543C85.69 37.5439 85.7405 37.6462 85.7698 37.7553C85.7992 37.8645 85.8067 37.9783 85.792 38.0903C85.025 43.9749 83.6085 49.1682 81.5828 53.5282C81.5133 53.6768 81.4029 53.8026 81.2645 53.8907C81.1261 53.9788 80.9654 54.0263 80.8013 54.0263ZM65.0009 66.8242H64.9987C60.0967 66.8242 55.3655 64.0813 51.6796 59.1014C51.5546 58.9173 51.5057 58.6921 51.5431 58.4728C51.5804 58.2535 51.7012 58.0571 51.88 57.9249C52.0589 57.7926 52.282 57.7346 52.5026 57.7631C52.7232 57.7916 52.9243 57.9043 53.0637 58.0777C56.4158 62.6078 60.6553 65.1028 64.9987 65.1028C69.3442 65.1028 73.5845 62.6078 76.9381 58.0791C77.0738 57.896 77.2766 57.7742 77.502 57.7404C77.7274 57.7066 77.9571 57.7636 78.1405 57.8989C78.5226 58.1815 78.6033 58.7207 78.3207 59.1028C74.6348 64.0813 69.9036 66.8242 65.0009 66.8242Z" fill="white"/>
<path fill-rule="evenodd" clip-rule="evenodd" d="M51.3789 29.5565C51.2034 29.5553 51.0295 29.5899 50.8678 29.6583C50.7062 29.7266 50.5602 29.8273 50.4387 29.954C50.3173 30.0807 50.2231 30.2309 50.1617 30.3954C50.1004 30.5598 50.0733 30.735 50.082 30.9103C50.3603 37.3962 51.5526 46.5637 55.6473 53.4042C56.898 55.4948 60.315 60.3565 65.0008 60.3565C69.6851 60.3565 73.1014 55.4948 74.3529 53.4042C78.4475 46.563 79.6392 37.3962 79.9174 30.9103C79.9261 30.735 79.8988 30.5598 79.8374 30.3953C79.776 30.2309 79.6817 30.0807 79.5602 29.954C79.4387 29.8272 79.2927 29.7266 79.131 29.6583C78.9693 29.5899 78.7954 29.5553 78.6198 29.5565H51.3789ZM65.0008 62.0772C59.6352 62.0772 55.9118 57.1975 54.1709 54.288C49.8902 47.139 48.6496 37.6687 48.3634 30.9839C48.3436 30.5766 48.4073 30.1696 48.5506 29.7879C48.6939 29.4062 48.9138 29.0578 49.1967 28.7642C49.4779 28.469 49.8164 28.2343 50.1915 28.0746C50.5666 27.915 50.9705 27.8337 51.3782 27.8357H78.6198C79.0278 27.8335 79.4318 27.9147 79.8072 28.0744C80.1826 28.2341 80.5214 28.4688 80.8027 28.7642C81.0858 29.0577 81.3059 29.406 81.4494 29.7878C81.5928 30.1695 81.6566 30.5765 81.6367 30.9839C81.3498 37.6687 80.1085 47.1368 75.8285 54.288C74.0876 57.1975 70.3642 62.0772 65.0008 62.0772ZM67.6364 70.6544H62.3638C61.206 70.6532 60.096 70.1929 59.2773 69.3743C58.4585 68.5557 57.998 67.4457 57.9966 66.288V64.3827C57.9966 64.1544 58.0873 63.9354 58.2487 63.774C58.4102 63.6126 58.6291 63.5219 58.8574 63.5219C59.0857 63.5219 59.3046 63.6126 59.466 63.774C59.6274 63.9354 59.7181 64.1544 59.7181 64.3827V66.288C59.7189 66.9894 59.9979 67.6619 60.4939 68.1579C60.9899 68.6539 61.6623 68.9329 62.3638 68.9336H67.6364C68.3378 68.9329 69.0103 68.6539 69.5063 68.1579C70.0023 67.6619 70.2813 66.9894 70.282 66.288V64.3827C70.282 64.1545 70.3727 63.9356 70.534 63.7743C70.6954 63.6129 70.9142 63.5223 71.1424 63.5223C71.3706 63.5223 71.5894 63.6129 71.7508 63.7743C71.9121 63.9356 72.0028 64.1545 72.0028 64.3827V66.288C72.0018 67.4458 71.5415 68.5559 70.7229 69.3747C69.9042 70.1935 68.7942 70.6532 67.6364 70.6544ZM77.4541 93.9896C77.3411 93.9897 77.2291 93.9675 77.1246 93.9242C77.0202 93.881 76.9253 93.8176 76.8453 93.7377C76.7654 93.6577 76.702 93.5628 76.6587 93.4583C76.6155 93.3539 76.5933 93.2419 76.5934 93.1288V89.7572C76.5934 88.9073 75.9014 88.2152 75.0514 88.2152H54.9473C54.0973 88.2152 53.4053 88.9073 53.4053 89.7572V93.1288C53.3988 93.3527 53.3053 93.5652 53.1447 93.7213C52.984 93.8774 52.7689 93.9647 52.5449 93.9647C52.3209 93.9647 52.1058 93.8774 51.9451 93.7213C51.7845 93.5652 51.691 93.3527 51.6845 93.1288V89.7572C51.6853 88.8921 52.0293 88.0627 52.641 87.451C53.2527 86.8392 54.0822 86.4952 54.9473 86.4945H75.0514C75.9163 86.4958 76.7455 86.84 77.3571 87.4516C77.9687 88.0632 78.3128 88.8923 78.3142 89.7572V93.1288C78.3142 93.6046 77.9292 93.9896 77.4541 93.9896Z" fill="white"/>
<path fill-rule="evenodd" clip-rule="evenodd" d="M55.9264 88.2158C55.7492 88.2169 55.576 88.1632 55.4306 88.0619C55.2852 87.9607 55.1747 87.8169 55.1142 87.6504C55.0537 87.4838 55.0462 87.3027 55.0928 87.1317C55.1393 86.9607 55.2376 86.8084 55.3742 86.6955C58.6442 83.9619 60.5855 78.2503 61.1428 69.7214C61.15 69.6087 61.1795 69.4985 61.2294 69.3971C61.2792 69.2957 61.3486 69.2052 61.4335 69.1306C61.5184 69.056 61.6171 68.9989 61.7241 68.9625C61.831 68.9261 61.9441 68.9111 62.0568 68.9184C62.1696 68.9257 62.2798 68.9551 62.3812 69.005C62.4826 69.0548 62.5731 69.1242 62.6477 69.2091C62.7223 69.294 62.7794 69.3927 62.8158 69.4997C62.8522 69.6066 62.8672 69.7197 62.8599 69.8325C62.2637 78.9784 60.1753 84.9264 56.4764 88.0169C56.3223 88.146 56.1275 88.2165 55.9264 88.2158ZM74.0741 88.2158C73.8801 88.2158 73.6826 88.151 73.5233 88.0169C69.8251 84.9264 67.7367 78.9784 67.1398 69.8325C67.129 69.7178 67.1413 69.6021 67.1761 69.4923C67.2108 69.3825 67.2672 69.2808 67.3419 69.1932C67.4166 69.1056 67.5082 69.0338 67.6111 68.9822C67.7141 68.9306 67.8263 68.9002 67.9412 68.8928C68.0562 68.8854 68.1714 68.9011 68.2801 68.939C68.3889 68.9769 68.4889 69.0362 68.5743 69.1135C68.6597 69.1908 68.7287 69.2844 68.7773 69.3888C68.8258 69.4932 68.8529 69.6063 68.857 69.7214C69.4142 78.2503 71.3556 83.9619 74.6255 86.6955C74.7617 86.8085 74.8596 86.9608 74.9059 87.1316C74.9522 87.3023 74.9447 87.4832 74.8843 87.6496C74.824 87.8159 74.7138 87.9595 74.5688 88.0609C74.4238 88.1622 74.251 88.2164 74.0741 88.2158ZM47.833 93.9894C47.7091 93.9906 47.5905 94.0403 47.5029 94.1279C47.4153 94.2156 47.3655 94.3341 47.3644 94.458V99.7205C47.3644 99.975 47.5778 100.191 47.833 100.191H82.1675C82.2913 100.188 82.4094 100.138 82.4968 100.05C82.5842 99.9627 82.6339 99.8443 82.6353 99.7205V94.4573C82.6337 94.3336 82.5837 94.2155 82.4962 94.1281C82.4087 94.0407 82.2905 93.9909 82.1668 93.9894H47.833ZM82.1675 101.911H47.833C47.2523 101.911 46.6957 101.679 46.2852 101.269C45.8748 100.858 45.644 100.301 45.6436 99.7205V94.4573C45.6444 93.8771 45.8752 93.3208 46.2855 92.9106C46.6958 92.5003 47.252 92.2694 47.8323 92.2687H82.1675C82.7477 92.2694 83.3039 92.5003 83.7142 92.9106C84.1245 93.3208 84.3553 93.8771 84.3561 94.4573V99.7205C84.3557 100.301 84.1251 100.858 83.7148 101.268C83.3045 101.679 82.748 101.91 82.1675 101.911ZM92.4589 28.9364C93.1726 28.9364 93.9194 29.0474 94.6836 29.2716C96.2378 29.7323 97.521 30.6738 98.3925 31.998C99.3369 33.434 99.7493 35.2247 99.5842 37.1791C99.4039 39.3215 98.5194 41.5621 97.0322 43.6555C94.9416 46.5968 90.6141 50.7224 81.8698 53.6607C80.5433 54.0868 79.5016 54.9944 78.9278 56.2149C78.3597 57.4231 78.3273 58.7877 78.8341 60.0529C79.5788 62.0086 81.4661 63.2868 83.5437 63.237C84.5611 63.214 85.5462 62.8748 86.3623 62.2667C86.9628 61.8205 86.6291 61.2741 86.5123 61.1162C86.4287 61.0052 85.9839 60.4688 85.3653 60.9295C84.8251 61.3267 84.1754 61.5473 83.5051 61.5611C82.8347 61.5749 82.1764 61.3812 81.6203 61.0066C81.1191 60.6706 80.7225 60.2004 80.4759 59.6497C80.2292 59.099 80.1424 58.49 80.2254 57.8924C80.3941 56.6539 81.226 55.6374 82.3982 55.2431C91.5873 52.1548 96.1744 47.766 98.4034 44.6294C100.061 42.2966 101.045 39.7707 101.252 37.3297C101.449 34.9919 100.942 32.8285 99.7853 31.0695C98.6953 29.4129 97.0964 28.2357 95.1586 27.6633C91.9406 26.7132 88.8148 27.486 86.7978 29.7265C85.4482 31.2274 84.7627 33.2228 84.917 35.2031C85.1282 37.9064 87.0609 39.2833 88.7982 39.669C90.4779 40.0439 92.9145 39.6438 94.2553 37.2843C94.3642 37.0911 94.3923 36.8633 94.3318 36.6485C94.2877 36.4886 94.1972 36.3455 94.0716 36.2372C93.9461 36.1289 93.7912 36.0603 93.6266 36.0401C93.4621 36.02 93.2952 36.0491 93.1473 36.124C92.9993 36.1988 92.8769 36.3158 92.7955 36.4603C92.5193 36.9448 92.1253 37.3517 91.65 37.6434C91.1746 37.9352 90.6334 38.1022 90.0764 38.1292C89.5209 38.1617 88.9662 38.0534 88.4639 37.8141C87.9615 37.5749 87.5278 37.2127 87.2029 36.7609C85.8318 34.8556 86.8713 32.1559 88.0485 30.8475C89.1803 29.5903 90.723 28.9364 92.4589 28.9364ZM83.4348 64.9578C82.0895 64.9565 80.7763 64.5469 79.6688 63.7833C78.5613 63.0196 77.7117 61.9377 77.2323 60.6808C76.5489 58.9795 76.5979 57.1297 77.37 55.4831C78.15 53.8251 79.5571 52.5974 81.3334 52.0258C89.628 49.2381 93.6866 45.3929 95.6301 42.6593C96.9392 40.8159 97.7135 38.871 97.8692 37.0334C98.0018 35.4691 97.6839 34.0547 96.9544 32.9446C96.3099 31.9641 95.3554 31.2649 94.1955 30.9225C93.045 30.5836 90.883 30.2722 89.3266 32.0002C88.4255 33.0022 87.905 34.7915 88.5985 35.756C88.9201 36.2023 89.4254 36.4409 89.9848 36.4099C90.2532 36.3978 90.5142 36.3181 90.7436 36.1783C90.9729 36.0384 91.1632 35.8428 91.2968 35.6097C91.6323 35.0199 92.1879 34.5871 92.8419 34.406C93.4958 34.225 94.1948 34.3104 94.7859 34.6437C95.0784 34.8091 95.3354 35.0306 95.542 35.2956C95.7486 35.5606 95.9008 35.8638 95.9898 36.1878C96.0809 36.5116 96.1068 36.8503 96.0659 37.1842C96.0251 37.5181 95.9184 37.8405 95.7519 38.1328C94.2662 40.7482 91.3905 42.0105 88.4255 41.3501C85.4872 40.6963 83.4362 38.3368 83.2012 35.3401V35.3379C83.0095 32.889 83.8558 30.4243 85.5175 28.576C87.9901 25.8294 91.7755 24.8706 95.646 26.0147C97.978 26.7024 99.9071 28.1225 101.223 30.1237C102.595 32.2071 103.197 34.7482 102.967 37.4732C102.734 40.2227 101.642 43.0428 99.8069 45.6264C97.4294 48.9714 92.575 53.6391 82.9468 56.8745C82.3917 57.0626 82.011 57.529 81.9325 58.1223C81.8532 58.7062 82.0954 59.252 82.5813 59.5785C82.8419 59.7552 83.1508 59.847 83.4657 59.8415C83.7805 59.8359 84.086 59.7333 84.3402 59.5475C85.6703 58.5577 87.1344 59.071 87.8928 60.0889C88.6512 61.109 88.7189 62.6582 87.3874 63.6494C86.2859 64.4695 84.9563 64.9263 83.5833 64.9564C83.5328 64.9578 83.4846 64.9578 83.4348 64.9578ZM44.1435 60.7435C44.0509 60.7445 43.9594 60.7641 43.8746 60.8012C43.7222 60.8732 43.5898 60.9816 43.4892 61.1169C43.3886 61.2522 43.3229 61.4101 43.2979 61.5768C43.2669 61.8472 43.3779 62.0735 43.6396 62.2689C44.4554 62.8756 45.4396 63.2139 46.4561 63.237H46.5649C47.5614 63.236 48.5341 62.9327 49.3546 62.3671C50.175 61.8016 50.8045 61.0004 51.1599 60.0695C51.6724 58.7877 51.64 57.4238 51.0719 56.2149C50.4988 54.9944 49.4571 54.0875 48.1408 53.6644C39.3842 50.7224 35.0581 46.5975 32.9682 43.6555C31.4803 41.5599 30.5965 39.3215 30.417 37.1791C30.2512 35.2254 30.6621 33.434 31.6072 31.998C32.4788 30.6738 33.7627 29.7308 35.3162 29.2716C37.9373 28.4988 40.3552 29.0727 41.9512 30.8475C43.1292 32.1559 44.1687 34.8556 42.7968 36.7609C42.4717 37.2124 42.0379 37.5745 41.5356 37.8137C41.0333 38.0529 40.4788 38.1614 39.9234 38.1292C38.7801 38.0665 37.7636 37.4443 37.2056 36.4618C37.1519 36.3653 37.0796 36.2805 36.9929 36.2122C36.9062 36.1439 36.8068 36.0935 36.7005 36.0639C36.5941 36.0342 36.483 36.026 36.3734 36.0396C36.2639 36.0532 36.1581 36.0884 36.0623 36.1431C35.8669 36.252 35.7271 36.4329 35.668 36.6478C35.6067 36.864 35.6355 37.0911 35.7451 37.285C37.086 39.6438 39.5226 40.0439 41.2022 39.669C42.9396 39.2833 44.8694 37.9064 45.0828 35.2053C45.2371 33.2228 44.5522 31.2274 43.202 29.7265C41.1857 27.486 38.0592 26.7132 34.8411 27.6633C32.9041 28.2357 31.3044 29.4129 30.2144 31.0695C29.0581 32.8285 28.5506 34.9919 28.7482 37.3297C28.9543 39.7735 29.9383 42.2966 31.5964 44.6294C33.8254 47.766 38.4102 52.1548 47.6016 55.2438C48.7737 55.6374 49.6056 56.6546 49.7743 57.8931C49.8575 58.4908 49.7708 59.0998 49.5241 59.6505C49.2774 60.2013 48.8807 60.6714 48.3794 61.0073C47.8237 61.3817 47.1659 61.5753 46.496 61.5618C45.8261 61.5482 45.1767 61.3281 44.6366 60.9316C44.4679 60.8062 44.3049 60.7435 44.1435 60.7435ZM46.5657 64.9578C46.5152 64.9578 46.4669 64.9578 46.4164 64.9556C45.0444 64.9257 43.7157 64.4697 42.6145 63.6508C41.8597 63.09 41.4848 62.2617 41.5886 61.3779C41.6471 60.9108 41.8253 60.4667 42.1062 60.0889C42.387 59.7111 42.7607 59.4123 43.1912 59.2217C44.0072 58.8699 44.9091 58.9881 45.6617 59.5475C45.9156 59.7331 46.2208 59.8356 46.5353 59.841C46.8498 59.8464 47.1582 59.7545 47.4185 59.5778C47.6543 59.4224 47.8406 59.2028 47.9556 58.9449C48.0706 58.687 48.1093 58.4016 48.0673 58.1223C47.988 57.529 47.6088 57.0626 47.053 56.8752C37.4248 53.6384 32.5703 48.9706 30.195 45.6257C28.3567 43.0428 27.2653 40.2227 27.0324 37.4725C26.8032 34.7475 27.4051 32.2078 28.777 30.123C30.0926 28.124 32.021 26.7024 34.3538 26.0139C38.225 24.8706 42.0096 25.8294 44.4823 28.576C46.1439 30.4243 46.9881 32.889 46.7985 35.3379V35.3401C46.5635 38.3368 44.5133 40.6963 41.5742 41.3501C38.6092 42.0097 35.7343 40.7482 34.2478 38.135C34.0814 37.8422 33.9747 37.5194 33.9339 37.1852C33.8931 36.851 33.9189 36.512 34.0099 36.1878C34.0985 35.8637 34.2505 35.5604 34.4572 35.2954C34.6638 35.0305 34.921 34.8092 35.2138 34.6444C35.5064 34.4783 35.8289 34.3717 36.1628 34.3307C36.4967 34.2898 36.8355 34.3153 37.1595 34.4058C37.4836 34.4948 37.7869 34.6472 38.0517 34.8542C38.3165 35.0612 38.5376 35.3188 38.7022 35.6118C38.8364 35.8444 39.027 36.0395 39.2564 36.1789C39.4858 36.3184 39.7467 36.3978 40.0149 36.4099C40.57 36.4387 41.0797 36.2023 41.4005 35.7553C42.0947 34.7908 41.5742 33.0015 40.6724 31.9995C39.1167 30.2715 36.9548 30.5836 35.8042 30.9225C34.6443 31.2649 33.6906 31.9641 33.0454 32.9446C32.3158 34.0547 31.9979 35.4691 32.1306 37.0334C32.287 38.8695 33.0605 40.8145 34.3697 42.6593C36.3132 45.3929 40.3718 49.2381 48.6771 52.0294C50.4433 52.5974 51.8498 53.8258 52.6298 55.4839C53.4026 57.1289 53.4509 58.9795 52.7624 60.6952C51.7892 63.2543 49.3094 64.9578 46.5657 64.9578Z" fill="white"/>
</g>
<defs>
<linearGradient id="paint0_linear_98_805" x1="-1.67709" y1="1.46485" x2="141.06" y2="10.4266" gradientUnits="userSpaceOnUse">
<stop stop-color="#EF1515"/>
<stop offset="1" stop-color="#F4B410"/>
</linearGradient>
<clipPath id="clip0_98_805">
<rect width="125" height="125" fill="white" transform="translate(0.5)"/>
</clipPath>
</defs>
</svg>
