<svg width="126" height="125" viewBox="0 0 126 125" fill="none" xmlns="http://www.w3.org/2000/svg">
<path d="M63.0004 123.536C96.7093 123.536 124.036 96.2093 124.036 62.5004C124.036 28.7914 96.7093 1.46484 63.0004 1.46484C29.2914 1.46484 1.96484 28.7914 1.96484 62.5004C1.96484 96.2093 29.2914 123.536 63.0004 123.536Z" fill="url(#paint0_linear_98_847)"/>
<path fill-rule="evenodd" clip-rule="evenodd" d="M78.9617 33.1563H47.0378C46.8139 33.1498 46.6014 33.0563 46.4454 32.8957C46.2893 32.735 46.202 32.5199 46.202 32.2959C46.202 32.072 46.2893 31.8568 46.4454 31.6962C46.6014 31.5355 46.8139 31.442 47.0378 31.4355H78.9617C79.1856 31.442 79.3981 31.5355 79.5541 31.6962C79.7102 31.8568 79.7975 32.072 79.7975 32.2959C79.7975 32.5199 79.7102 32.735 79.5541 32.8957C79.3981 33.0563 79.1856 33.1498 78.9617 33.1563ZM88.8566 101.912H37.1415C31.9698 101.912 27.7627 97.7047 27.7627 92.5309V40.8165C27.7627 35.6434 31.9698 31.4355 37.1415 31.4355H40.2197C40.4479 31.4355 40.6669 31.5262 40.8283 31.6877C40.9897 31.8491 41.0804 32.068 41.0804 32.2963C41.0804 32.5246 40.9897 32.7435 40.8283 32.9049C40.6669 33.0663 40.4479 33.157 40.2197 33.157H37.1415C32.9185 33.157 29.4835 36.5935 29.4835 40.8165V92.5309C29.4835 96.7546 32.9178 100.191 37.1415 100.191H88.858C93.081 100.191 96.5175 96.7546 96.5175 92.5309V40.8165C96.5175 36.5928 93.081 33.157 88.8573 33.157H85.7813C85.553 33.157 85.3341 33.0663 85.1726 32.9049C85.0112 32.7435 84.9205 32.5246 84.9205 32.2963C84.9205 32.068 85.0112 31.8491 85.1726 31.6877C85.3341 31.5262 85.553 31.4355 85.7813 31.4355H88.858C94.0297 31.4355 98.2383 35.6434 98.2383 40.8165V92.5309C98.2383 97.7047 94.0297 101.912 88.858 101.912H88.8566Z" fill="white"/>
<path fill-rule="evenodd" clip-rule="evenodd" d="M97.3777 48.914H28.6229C28.3991 48.9075 28.1865 48.814 28.0305 48.6534C27.8744 48.4927 27.7871 48.2776 27.7871 48.0536C27.7871 47.8296 27.8744 47.6145 28.0305 47.4539C28.1865 47.2932 28.3991 47.1997 28.6229 47.1932H97.3777C97.6016 47.1997 97.8142 47.2932 97.9702 47.4539C98.1263 47.6145 98.2136 47.8296 98.2136 48.0536C98.2136 48.2776 98.1263 48.4927 97.9702 48.6534C97.8142 48.814 97.6016 48.9075 97.3777 48.914ZM71.6391 41.0354H54.3594C54.1311 41.0354 53.9122 40.9447 53.7508 40.7833C53.5893 40.6219 53.4987 40.4029 53.4987 40.1747C53.4987 39.9464 53.5893 39.7274 53.7508 39.566C53.9122 39.4046 54.1311 39.3139 54.3594 39.3139H71.6391C71.8674 39.3139 72.0863 39.4046 72.2477 39.566C72.4092 39.7274 72.4999 39.9464 72.4999 40.1747C72.4999 40.4029 72.4092 40.6219 72.2477 40.7833C72.0863 40.9447 71.8674 41.0354 71.6391 41.0354ZM82.3717 24.8104C81.6959 24.8111 81.048 25.0799 80.5701 25.5578C80.0922 26.0357 79.8234 26.6836 79.8226 27.3594V36.0122C79.8234 36.6881 80.0922 37.336 80.5701 37.8139C81.048 38.2917 81.6959 38.5605 82.3717 38.5613C83.0475 38.5605 83.6954 38.2917 84.1733 37.8139C84.6512 37.336 84.92 36.6881 84.9208 36.0122V27.3594C84.92 26.6836 84.6512 26.0357 84.1733 25.5578C83.6954 25.0799 83.0475 24.8111 82.3717 24.8104ZM82.3717 40.2821C81.2397 40.2807 80.1544 39.8305 79.354 39.03C78.5535 38.2295 78.1032 37.1443 78.1019 36.0122V27.3594C78.1027 26.2272 78.5527 25.1415 79.3533 24.3408C80.1539 23.5401 81.2394 23.0898 82.3717 23.0889C83.5038 23.0902 84.5892 23.5406 85.3897 24.3412C86.1902 25.1418 86.6404 26.2273 86.6415 27.3594V36.0122C86.6398 37.1441 86.1894 38.2292 85.389 39.0296C84.5887 39.8299 83.5036 40.2804 82.3717 40.2821ZM43.629 24.8104C42.9531 24.8111 42.3052 25.0799 41.8274 25.5578C41.3495 26.0357 41.0807 26.6836 41.0799 27.3594V36.0122C41.0807 36.6881 41.3495 37.336 41.8274 37.8139C42.3052 38.2917 42.9531 38.5605 43.629 38.5613C44.3048 38.5605 44.9527 38.2917 45.4306 37.8139C45.9085 37.336 46.1773 36.6881 46.178 36.0122V27.3594C46.1773 26.6836 45.9085 26.0357 45.4306 25.5578C44.9527 25.0799 44.3048 24.8111 43.629 24.8104ZM43.629 40.2821C42.497 40.2807 41.4117 39.8305 40.6112 39.03C39.8108 38.2295 39.3605 37.1443 39.3591 36.0122V27.3594C39.3599 26.2272 39.81 25.1415 40.6105 24.3408C41.4111 23.5401 42.4967 23.0898 43.629 23.0889C44.7611 23.0902 45.8465 23.5406 46.647 24.3412C47.4474 25.1418 47.8976 26.2273 47.8988 27.3594V36.0122C47.8973 37.1442 47.4469 38.2294 46.6465 39.0298C45.8461 39.8302 44.7609 40.2805 43.629 40.2821ZM36.1 93.7425H89.8992V56.9483H36.1V93.7425ZM90.76 95.4632H35.24C34.7642 95.4632 34.3792 95.0783 34.3792 94.6032V56.0883C34.3792 55.6125 34.7642 55.2275 35.2393 55.2275H90.76C91.2343 55.2275 91.62 55.6132 91.62 56.0883V94.6032C91.62 95.0783 91.2343 95.4632 90.76 95.4632Z" fill="white"/>
<path fill-rule="evenodd" clip-rule="evenodd" d="M62.9999 95.4632C62.7719 95.4631 62.5532 95.3724 62.392 95.2111C62.2307 95.0499 62.1401 94.8313 62.1399 94.6032V56.0883C62.1463 55.8644 62.2398 55.6519 62.4005 55.4958C62.5611 55.3398 62.7763 55.2525 63.0003 55.2525C63.2242 55.2525 63.4394 55.3398 63.6 55.4958C63.7607 55.6519 63.8541 55.8644 63.8606 56.0883V94.6032C63.8606 95.0776 63.4742 95.4632 62.9999 95.4632ZM76.8806 95.4632C76.7675 95.4634 76.6555 95.4413 76.5509 95.3982C76.4464 95.3551 76.3514 95.2918 76.2713 95.2119C76.1912 95.132 76.1277 95.0372 76.0843 94.9327C76.0409 94.8283 76.0185 94.7163 76.0184 94.6032V56.0883C76.0184 55.8598 76.1092 55.6407 76.2707 55.4791C76.4323 55.3176 76.6514 55.2268 76.8799 55.2268C77.1084 55.2268 77.3275 55.3176 77.489 55.4791C77.6506 55.6407 77.7414 55.8598 77.7414 56.0883V94.6032C77.7414 95.0776 77.3557 95.4632 76.8806 95.4632ZM49.1199 95.4632C48.6441 95.4632 48.2591 95.0783 48.2591 94.6032V56.0883C48.2558 55.9732 48.2756 55.8586 48.3173 55.7513C48.3591 55.644 48.4219 55.5462 48.5022 55.4636C48.5824 55.381 48.6783 55.3154 48.7844 55.2706C48.8904 55.2257 49.0044 55.2026 49.1195 55.2026C49.2347 55.2026 49.3486 55.2257 49.4547 55.2706C49.5607 55.3154 49.6567 55.381 49.7369 55.4636C49.8171 55.5462 49.88 55.644 49.9217 55.7513C49.9635 55.8586 49.9832 55.9732 49.9799 56.0883V94.6032C49.9799 95.0776 49.595 95.4632 49.1199 95.4632Z" fill="white"/>
<path fill-rule="evenodd" clip-rule="evenodd" d="M90.7597 70.1497H35.2396C35.0114 70.1497 34.7924 70.059 34.631 69.8976C34.4696 69.7362 34.3789 69.5172 34.3789 69.289C34.3789 69.0607 34.4696 68.8417 34.631 68.6803C34.7924 68.5189 35.0114 68.4282 35.2396 68.4282H90.7597C90.9835 68.4347 91.1961 68.5282 91.3521 68.6888C91.5082 68.8495 91.5955 69.0646 91.5955 69.2886C91.5955 69.5126 91.5082 69.7277 91.3521 69.8884C91.1961 70.049 90.9835 70.1432 90.7597 70.1497ZM90.7597 82.2642H35.2396C35.0158 82.2578 34.8032 82.1643 34.6472 82.0036C34.4911 81.843 34.4038 81.6278 34.4038 81.4039C34.4038 81.1799 34.4911 80.9648 34.6472 80.8041C34.8032 80.6435 35.0158 80.55 35.2396 80.5435H90.7597C90.9835 80.55 91.1961 80.6435 91.3521 80.8041C91.5082 80.9648 91.5955 81.1799 91.5955 81.4039C91.5955 81.6278 91.5082 81.843 91.3521 82.0036C91.1961 82.1643 90.9835 82.2578 90.7597 82.2642Z" fill="white"/>
<defs>
<linearGradient id="paint0_linear_98_847" x1="-3.67709" y1="1.46485" x2="139.06" y2="10.4266" gradientUnits="userSpaceOnUse">
<stop stop-color="#EF1515"/>
<stop offset="1" stop-color="#F4B410"/>
</linearGradient>
</defs>
</svg>
