<svg width="126" height="125" viewBox="0 0 126 125" fill="none" xmlns="http://www.w3.org/2000/svg">
<path d="M63.0004 123.536C96.7093 123.536 124.036 96.2093 124.036 62.5004C124.036 28.7914 96.7093 1.46484 63.0004 1.46484C29.2914 1.46484 1.96484 28.7914 1.96484 62.5004C1.96484 96.2093 29.2914 123.536 63.0004 123.536Z" fill="url(#paint0_linear_98_833)"/>
<path fill-rule="evenodd" clip-rule="evenodd" d="M76.3581 93.2887H47.4793C47.2512 93.2887 47.0324 93.1981 46.8712 93.0368C46.7099 92.8755 46.6193 92.6567 46.6193 92.4286C46.6193 92.2005 46.7099 91.9818 46.8712 91.8205C47.0324 91.6592 47.2512 91.5686 47.4793 91.5686H76.3581C77.5282 91.5673 78.6499 91.1019 79.4773 90.2745C80.3046 89.4472 80.77 88.3254 80.7714 87.1553C80.7714 84.7216 78.794 82.7421 76.3639 82.7421H56.2345C48.105 82.7421 41.4916 76.1279 41.4916 67.9984C41.4916 59.8697 48.105 53.2563 56.2338 53.2563L76.3639 53.2555C78.794 53.2555 80.7714 51.276 80.7714 48.843V37.1862C80.7714 36.9581 80.862 36.7394 81.0233 36.5781C81.1846 36.4168 81.4033 36.3262 81.6314 36.3262C81.8595 36.3262 82.0782 36.4168 82.2395 36.5781C82.4008 36.7394 82.4914 36.9581 82.4914 37.1862V48.843C82.4914 52.2239 79.7427 54.9763 76.3639 54.9763H56.2345C49.0537 54.9763 43.2116 60.8184 43.2116 67.9992C43.2116 75.1792 49.0537 81.0213 56.2345 81.0213H76.3639C79.7427 81.0213 82.4914 83.7729 82.4914 87.1553C82.4914 90.537 79.7405 93.2887 76.3581 93.2887ZM76.3581 101.898H42.3516C42.1234 101.898 41.9046 101.808 41.7432 101.646C41.5819 101.485 41.4912 101.266 41.4912 101.038C41.4912 100.81 41.5819 100.591 41.7432 100.429C41.9046 100.268 42.1234 100.177 42.3516 100.177H76.3581C83.5389 100.177 89.381 94.3354 89.381 87.1553C89.381 79.9738 83.5418 74.1325 76.3639 74.1325H56.2345C52.8521 74.1325 50.1004 71.3808 50.1004 67.9992C50.1004 64.616 52.8521 61.8651 56.2345 61.8651H76.3639C83.541 61.8651 89.381 56.023 89.381 48.843V37.1862C89.381 36.9581 89.4716 36.7394 89.6329 36.5781C89.7941 36.4168 90.0129 36.3262 90.241 36.3262C90.4691 36.3262 90.6878 36.4168 90.8491 36.5781C91.0104 36.7394 91.101 36.9581 91.101 37.1862V48.843C91.101 56.9717 84.4904 63.5852 76.3639 63.5852H56.2345C53.8008 63.5852 51.8212 65.5654 51.8212 67.9992C51.8212 70.4329 53.8008 72.4124 56.2345 72.4124H76.3639C84.4897 72.4124 91.101 79.0259 91.101 87.1546C91.101 95.2841 84.4876 101.898 76.3581 101.898Z" fill="white"/>
<path fill-rule="evenodd" clip-rule="evenodd" d="M84.9952 53.8308C84.8498 53.8306 84.7068 53.7935 84.5796 53.723C84.4524 53.6525 84.3451 53.5509 84.2678 53.4277C84.1905 53.3045 84.1457 53.1638 84.1375 53.0186C84.1293 52.8734 84.158 52.7285 84.221 52.5974C84.4466 52.1274 84.6319 51.6357 84.7688 51.134C84.7988 51.0251 84.8498 50.9231 84.9192 50.834C84.9885 50.7448 85.0747 50.6701 85.1728 50.6143C85.271 50.5584 85.3792 50.5224 85.4913 50.5084C85.6034 50.4943 85.7171 50.5025 85.826 50.5324C85.9349 50.5623 86.0369 50.6134 86.1261 50.6827C86.2153 50.7521 86.2899 50.8383 86.3458 50.9364C86.4016 51.0346 86.4376 51.1428 86.4517 51.2549C86.4657 51.367 86.4575 51.4807 86.4276 51.5896C86.2621 52.1928 86.0426 52.7798 85.7716 53.3435C85.7013 53.4897 85.5911 53.613 85.4537 53.6993C85.3164 53.7855 85.1574 53.8311 84.9952 53.8308ZM80.1407 58.4993C79.9428 58.4996 79.7509 58.4315 79.5973 58.3067C79.4437 58.1819 79.3378 58.0079 79.2976 57.8141C79.2574 57.6203 79.2852 57.4186 79.3764 57.243C79.4676 57.0673 79.6167 56.9285 79.7983 56.8499C80.2775 56.642 80.7371 56.3915 81.1716 56.1017C81.3614 55.975 81.5937 55.9289 81.8174 55.9735C82.0412 56.0181 82.238 56.1498 82.3647 56.3395C82.4913 56.5293 82.5374 56.7616 82.4928 56.9854C82.4482 57.2091 82.3165 57.406 82.1268 57.5326C81.6064 57.8796 81.0561 58.1795 80.4824 58.4287C80.3746 58.4754 80.2583 58.4994 80.1407 58.4993ZM61.3248 59.2808H59.604C59.376 59.2808 59.1572 59.1902 58.9959 59.0289C58.8346 58.8676 58.744 58.6488 58.744 58.4208C58.744 58.1927 58.8346 57.9739 58.9959 57.8126C59.1572 57.6513 59.376 57.5607 59.604 57.5607H61.3248C61.5529 57.5607 61.7717 57.6513 61.9329 57.8126C62.0942 57.9739 62.1848 58.1927 62.1848 58.4208C62.1848 58.6488 62.0942 58.8676 61.9329 59.0289C61.7717 59.1902 61.5529 59.2808 61.3248 59.2808ZM68.2064 59.2808H66.4857C66.2576 59.2808 66.0388 59.1902 65.8775 59.0289C65.7162 58.8676 65.6256 58.6488 65.6256 58.4208C65.6256 58.1927 65.7162 57.9739 65.8775 57.8126C66.0388 57.6513 66.2576 57.5607 66.4857 57.5607H68.2064C68.4345 57.5607 68.6533 57.6513 68.8145 57.8126C68.9758 57.9739 69.0664 58.1927 69.0664 58.4208C69.0664 58.6488 68.9758 58.8676 68.8145 59.0289C68.6533 59.1902 68.4345 59.2808 68.2064 59.2808ZM75.088 59.2808H73.3673C73.1392 59.2808 72.9204 59.1902 72.7591 59.0289C72.5979 58.8676 72.5072 58.6488 72.5072 58.4208C72.5072 58.1927 72.5979 57.9739 72.7591 57.8126C72.9204 57.6513 73.1392 57.5607 73.3673 57.5607H75.088C75.3161 57.5607 75.5349 57.6513 75.6962 57.8126C75.8574 57.9739 75.948 58.1927 75.948 58.4208C75.948 58.6488 75.8574 58.8676 75.6962 59.0289C75.5349 59.1902 75.3161 59.2808 75.088 59.2808ZM52.8032 59.9202C52.6028 59.9196 52.4089 59.849 52.255 59.7208C52.101 59.5925 51.9967 59.4146 51.9599 59.2176C51.923 59.0206 51.9561 58.817 52.0533 58.6418C52.1506 58.4666 52.3059 58.3308 52.4925 58.2578C53.0762 58.0322 53.6792 57.8599 54.294 57.7431C54.4055 57.7207 54.5203 57.7207 54.6318 57.7429C54.7433 57.7652 54.8492 57.8094 54.9436 57.8729C55.0379 57.9364 55.1187 58.0179 55.1813 58.1129C55.2439 58.2078 55.287 58.3142 55.3082 58.4259C55.3294 58.5376 55.3283 58.6524 55.3048 58.7637C55.2814 58.8749 55.2361 58.9804 55.1716 59.0741C55.1071 59.1677 55.0247 59.2477 54.9291 59.3092C54.8335 59.3708 54.7267 59.4129 54.6148 59.4329C54.1023 59.5304 53.5997 59.6743 53.1132 59.8625C53.0115 59.9015 52.9063 59.9202 52.8032 59.9202ZM47.7671 64.394C47.6187 64.394 47.4728 64.3555 47.3437 64.2824C47.2145 64.2093 47.1065 64.1041 47.0301 63.9769C46.9537 63.8497 46.9115 63.7049 46.9076 63.5565C46.9037 63.4082 46.9383 63.2613 47.008 63.1303C47.3006 62.581 47.6445 62.0533 48.0302 61.5631C48.1713 61.3838 48.3778 61.2678 48.6044 61.2408C48.831 61.2138 49.059 61.2778 49.2384 61.4189C49.4177 61.56 49.5337 61.7666 49.5607 61.9932C49.5877 62.2198 49.5237 62.4478 49.3826 62.6271C49.0596 63.0373 48.772 63.4778 48.5276 63.9377C48.4543 64.0756 48.3448 64.1909 48.211 64.2713C48.0771 64.3517 47.9232 64.3941 47.7671 64.394ZM46.9157 71.0709C46.5264 71.0709 46.1732 70.8056 46.0794 70.4106C45.9353 69.805 45.8444 69.1815 45.8113 68.5572C45.8053 68.4444 45.8215 68.3315 45.8591 68.225C45.8968 68.1185 45.955 68.0204 46.0305 67.9364C46.106 67.8524 46.1973 67.7841 46.2992 67.7354C46.4011 67.6866 46.5116 67.6585 46.6244 67.6525C46.7372 67.6464 46.8501 67.6627 46.9566 67.7003C47.0631 67.7379 47.1612 67.7962 47.2452 67.8717C47.3292 67.9472 47.3975 68.0385 47.4463 68.1404C47.495 68.2423 47.5231 68.3528 47.5292 68.4656C47.5565 68.9854 47.6322 69.5059 47.7526 70.0112C47.7828 70.1377 47.7839 70.2693 47.7559 70.3963C47.7279 70.5233 47.6714 70.6422 47.5908 70.7442C47.5102 70.8462 47.4075 70.9286 47.2904 70.9852C47.1733 71.0418 47.0457 71.0711 46.9157 71.0709ZM50.683 76.6528C50.51 76.6528 50.3356 76.6009 50.1835 76.4927C49.6755 76.1291 49.2007 75.7211 48.7648 75.2737C48.686 75.1928 48.6239 75.0971 48.582 74.9921C48.5402 74.8872 48.5194 74.775 48.5209 74.6621C48.5224 74.5491 48.5462 74.4376 48.5908 74.3338C48.6354 74.23 48.7 74.136 48.781 74.0572C48.8619 73.9784 48.9576 73.9163 49.0625 73.8745C49.1675 73.8326 49.2796 73.8119 49.3926 73.8134C49.5055 73.8149 49.6171 73.8386 49.7209 73.8832C49.8247 73.9278 49.9187 73.9925 49.9975 74.0734C50.3615 74.4468 50.7609 74.79 51.1848 75.0935C51.3329 75.1995 51.4435 75.3499 51.5007 75.5228C51.5579 75.6958 51.5586 75.8824 51.5029 76.0558C51.4472 76.2293 51.3378 76.3805 51.1906 76.4878C51.0434 76.5951 50.8652 76.6528 50.683 76.6528ZM57.1891 78.437H56.2346C55.9571 78.437 55.6766 78.4261 55.4013 78.4045C55.1737 78.3864 54.9628 78.2786 54.8147 78.1048C54.6667 77.9311 54.5937 77.7057 54.6119 77.4782C54.6301 77.2507 54.7379 77.0397 54.9116 76.8916C55.0853 76.7436 55.3107 76.6706 55.5382 76.6888C55.7682 76.7075 56.0025 76.7169 56.2346 76.7169H57.1891C57.4172 76.7169 57.6359 76.8075 57.7972 76.9688C57.9585 77.1301 58.0491 77.3488 58.0491 77.5769C58.0491 77.805 57.9585 78.0238 57.7972 78.1851C57.6359 78.3464 57.4172 78.437 57.1891 78.437ZM64.0707 78.437H62.3506C62.1225 78.437 61.9038 78.3464 61.7425 78.1851C61.5812 78.0238 61.4906 77.805 61.4906 77.5769C61.4906 77.3488 61.5812 77.1301 61.7425 76.9688C61.9038 76.8075 62.1225 76.7169 62.3506 76.7169H64.0707C64.2988 76.7169 64.5175 76.8075 64.6788 76.9688C64.8401 77.1301 64.9307 77.3488 64.9307 77.5769C64.9307 77.805 64.8401 78.0238 64.6788 78.1851C64.5175 78.3464 64.2988 78.437 64.0707 78.437ZM70.9523 78.437H69.2322C69.0042 78.437 68.7854 78.3464 68.6241 78.1851C68.4628 78.0238 68.3722 77.805 68.3722 77.5769C68.3722 77.3488 68.4628 77.1301 68.6241 76.9688C68.7854 76.8075 69.0042 76.7169 69.2322 76.7169H70.9523C71.1804 76.7169 71.3991 76.8075 71.5604 76.9688C71.7217 77.1301 71.8123 77.3488 71.8123 77.5769C71.8123 77.805 71.7217 78.0238 71.5604 78.1851C71.3991 78.3464 71.1804 78.437 70.9523 78.437ZM77.8288 78.5501C77.7849 78.5501 77.7402 78.5465 77.6955 78.54C77.2549 78.4721 76.8098 78.4379 76.364 78.4377H76.1131C75.8849 78.4377 75.6661 78.347 75.5047 78.1857C75.3434 78.0243 75.2528 77.8055 75.2528 77.5773C75.2528 77.3491 75.3434 77.1303 75.5047 76.9689C75.6661 76.8076 75.8849 76.7169 76.1131 76.7169H76.364C76.8982 76.7169 77.4352 76.7587 77.9593 76.8395C78.1744 76.8715 78.3694 76.9837 78.505 77.1537C78.6406 77.3237 78.7068 77.5387 78.6903 77.7555C78.6738 77.9724 78.5757 78.1749 78.4159 78.3223C78.256 78.4697 78.0463 78.5511 77.8288 78.5501ZM83.6882 81.8662C83.5627 81.8665 83.4386 81.8392 83.3247 81.7863C83.2109 81.7333 83.1101 81.656 83.0293 81.5599C82.6928 81.1597 82.3215 80.7902 81.9199 80.4555C81.7445 80.3095 81.6342 80.0998 81.6134 79.8725C81.5926 79.6453 81.6629 79.4191 81.8089 79.2436C81.9548 79.0682 82.1645 78.958 82.3918 78.9372C82.619 78.9163 82.8453 78.9866 83.0207 79.1326C83.5006 79.5324 83.9443 79.9739 84.3464 80.4518C84.4519 80.5772 84.5193 80.7301 84.5408 80.8924C84.5624 81.0548 84.5371 81.22 84.468 81.3685C84.3988 81.517 84.2887 81.6426 84.1506 81.7307C84.0124 81.8187 83.852 81.8655 83.6882 81.8655V81.8662ZM85.9352 88.2122H85.9172C85.6892 88.2075 85.4723 88.1124 85.3143 87.9479C85.1563 87.7834 85.0701 87.5629 85.0745 87.3349C85.0858 86.8127 85.0496 86.2905 84.9664 85.7749C84.9394 85.5539 84.999 85.331 85.1328 85.1531C85.2667 84.9752 85.4642 84.856 85.684 84.8206C85.9039 84.7853 86.1288 84.8365 86.3117 84.9634C86.4946 85.0904 86.6211 85.2834 86.6648 85.5017C86.7638 86.1189 86.8073 86.7438 86.7945 87.3688C86.79 87.5938 86.6975 87.8081 86.5369 87.9658C86.3763 88.1234 86.1603 88.2119 85.9352 88.2122ZM83.4287 94.4594C83.262 94.4594 83.0989 94.4109 82.9592 94.3198C82.8196 94.2288 82.7094 94.0991 82.6421 93.9465C82.5748 93.794 82.5533 93.6252 82.5802 93.4607C82.6071 93.2962 82.6813 93.143 82.7936 93.0198C83.1458 92.6337 83.463 92.2171 83.7416 91.7748C83.8018 91.6792 83.8802 91.5964 83.9725 91.5311C84.0647 91.4658 84.1688 91.4193 84.279 91.3943C84.3892 91.3693 84.5033 91.3662 84.6146 91.3852C84.726 91.4042 84.8325 91.445 84.9282 91.5052C85.0238 91.5654 85.1066 91.6439 85.1719 91.7361C85.2372 91.8283 85.2837 91.9325 85.3087 92.0427C85.3338 92.1529 85.3368 92.2669 85.3178 92.3783C85.2988 92.4897 85.258 92.5962 85.1978 92.6918C84.8662 93.2181 84.4848 93.7184 84.0638 94.1797C83.8944 94.3657 83.6616 94.4602 83.4287 94.4594ZM77.4367 97.5326C77.2164 97.5333 77.0042 97.4495 76.8439 97.2984C76.6836 97.1474 76.5874 96.9405 76.5751 96.7206C76.5628 96.5006 76.6354 96.2844 76.7778 96.1164C76.9203 95.9484 77.1218 95.8414 77.3408 95.8176C77.8584 95.7592 78.3724 95.6532 78.8705 95.5018C78.9786 95.4691 79.0921 95.458 79.2046 95.4691C79.317 95.4802 79.4261 95.5133 79.5257 95.5666C79.6253 95.6199 79.7135 95.6923 79.7851 95.7796C79.8567 95.867 79.9105 95.9676 79.9432 96.0757C79.976 96.1838 79.9871 96.2973 79.976 96.4097C79.9649 96.5221 79.9317 96.6313 79.8785 96.7309C79.8252 96.8305 79.7528 96.9186 79.6654 96.9902C79.5781 97.0619 79.4775 97.1156 79.3694 97.1483C78.7725 97.3293 78.1554 97.4569 77.5354 97.5275C77.5027 97.5312 77.4697 97.5329 77.4367 97.5326ZM51.6353 97.5939H49.9146C49.6864 97.5939 49.4676 97.5032 49.3062 97.3419C49.1448 97.1805 49.0542 96.9617 49.0542 96.7335C49.0542 96.5053 49.1448 96.2865 49.3062 96.1251C49.4676 95.9638 49.6864 95.8731 49.9146 95.8731H51.6353C51.8634 95.8731 52.0822 95.9637 52.2435 96.125C52.4048 96.2863 52.4954 96.505 52.4954 96.7331C52.4954 96.9612 52.4048 97.18 52.2435 97.3412C52.0822 97.5025 51.8634 97.5931 51.6353 97.5931V97.5939ZM58.5162 97.5939H56.7962C56.568 97.5939 56.3492 97.5032 56.1878 97.3419C56.0265 97.1805 55.9358 96.9617 55.9358 96.7335C55.9358 96.5053 56.0265 96.2865 56.1878 96.1251C56.3492 95.9638 56.568 95.8731 56.7962 95.8731H58.5162C58.7443 95.8731 58.9631 95.9637 59.1244 96.125C59.2856 96.2863 59.3762 96.505 59.3762 96.7331C59.3762 96.9612 59.2856 97.18 59.1244 97.3412C58.9631 97.5025 58.7443 97.5931 58.5162 97.5931V97.5939ZM65.3978 97.5939H63.6785C63.4503 97.5939 63.2315 97.5032 63.0701 97.3419C62.9088 97.1805 62.8181 96.9617 62.8181 96.7335C62.8181 96.5053 62.9088 96.2865 63.0701 96.1251C63.2315 95.9638 63.4503 95.8731 63.6785 95.8731H65.3986C65.6206 95.8822 65.8304 95.9768 65.9843 96.1371C66.1382 96.2974 66.2241 96.5109 66.2241 96.7331C66.2241 96.9553 66.1382 97.1689 65.9843 97.3292C65.8304 97.4895 65.6206 97.5841 65.3986 97.5931L65.3978 97.5939ZM72.2794 97.5939H70.5594C70.3312 97.5939 70.1124 97.5032 69.951 97.3419C69.7897 97.1805 69.699 96.9617 69.699 96.7335C69.699 96.5053 69.7897 96.2865 69.951 96.1251C70.1124 95.9638 70.3312 95.8731 70.5594 95.8731H72.2794C72.5075 95.8731 72.7263 95.9637 72.8876 96.125C73.0489 96.2863 73.1395 96.505 73.1395 96.7331C73.1395 96.9612 73.0489 97.18 72.8876 97.3412C72.7263 97.5025 72.5075 97.5931 72.2794 97.5931V97.5939ZM42.3517 81.5577C39.0061 81.5577 36.284 84.2798 36.284 87.6254C36.284 89.5805 39.634 94.9857 41.6359 98.2138C41.8911 98.6255 42.1311 99.0133 42.3517 99.3723C42.5723 99.0133 42.8124 98.6262 43.0676 98.2146C45.0695 94.985 48.4195 89.5812 48.4195 87.6254C48.4195 84.2798 45.6974 81.5577 42.3517 81.5577ZM42.3517 101.898C42.0461 101.898 41.7635 101.736 41.6092 101.472C41.2444 100.849 40.7485 100.048 40.1732 99.1207C37.1044 94.1696 34.564 89.8868 34.564 87.6254C34.564 83.3311 38.0574 79.8376 42.3517 79.8376C46.6461 79.8376 50.1395 83.3311 50.1395 87.6254C50.1395 89.8868 47.5991 94.1696 44.5295 99.1214C44.0421 99.8991 43.5638 100.683 43.095 101.472C43.0193 101.601 42.9109 101.709 42.7806 101.784C42.6503 101.859 42.502 101.898 42.3517 101.898Z" fill="white"/>
<path fill-rule="evenodd" clip-rule="evenodd" d="M42.3518 85.0115C41.7112 85.0123 41.0971 85.2671 40.6442 85.7202C40.1913 86.1732 39.9367 86.7874 39.9361 87.4279C39.937 88.0683 40.1919 88.6821 40.6447 89.1348C41.0976 89.5875 41.7115 89.8422 42.3518 89.8429C42.9921 89.8422 43.606 89.5875 44.0589 89.1348C44.5117 88.6821 44.7665 88.0683 44.7675 87.4279C44.7669 86.7875 44.5123 86.1734 44.0596 85.7204C43.6069 85.2674 42.9922 85.0125 42.3518 85.0115ZM42.3518 91.5637C41.2552 91.5625 40.2039 91.1265 39.4284 90.3511C38.6529 89.5758 38.2167 88.5245 38.2153 87.4279C38.2165 86.3312 38.6526 85.2798 39.4281 84.5043C40.2036 83.7288 41.2551 83.2926 42.3518 83.2915C43.4485 83.2926 44.5 83.7288 45.2754 84.5043C46.0509 85.2798 46.4871 86.3312 46.4883 87.4279C46.4869 88.5245 46.0507 89.5758 45.2752 90.3511C44.4997 91.1265 43.4484 91.5625 42.3518 91.5637ZM85.9367 24.8223C82.5911 24.8223 79.869 27.5444 79.869 30.89C79.869 32.8451 83.219 38.2503 85.2209 41.4785C85.4761 41.8901 85.7162 42.2772 85.9367 42.6369C86.1573 42.2772 86.3974 41.8901 86.6526 41.4785C88.6545 38.2489 92.0045 32.8451 92.0045 30.89C92.0045 27.5437 89.2824 24.8223 85.9367 24.8223ZM85.9367 45.1622C85.6311 45.1622 85.3485 45.0007 85.1942 44.7369C84.8302 44.1126 84.3335 43.3124 83.7589 42.3853C80.6894 37.4336 78.1483 33.1508 78.1483 30.89C78.1483 26.5957 81.6424 23.1016 85.9367 23.1016C90.2311 23.1016 93.7245 26.5957 93.7245 30.89C93.7245 33.1515 91.1841 37.4336 88.1146 42.3853C87.6271 43.1635 87.1489 43.9474 86.68 44.7369C86.6041 44.8666 86.4955 44.9741 86.3651 45.0487C86.2347 45.1234 86.087 45.1625 85.9367 45.1622Z" fill="white"/>
<path fill-rule="evenodd" clip-rule="evenodd" d="M85.9366 28.2762C85.296 28.277 84.6818 28.5318 84.2288 28.9848C83.7758 29.4378 83.5209 30.052 83.5202 30.6926C83.5209 31.3332 83.7758 31.9473 84.2288 32.4002C84.6818 32.8531 85.296 33.1077 85.9366 33.1083C86.577 33.1075 87.1911 32.8528 87.6439 32.3999C88.0968 31.9471 88.3515 31.3331 88.3523 30.6926C88.3517 30.052 88.0971 29.4379 87.6442 28.9848C87.1913 28.5318 86.5772 28.277 85.9366 28.2762ZM85.9366 34.8291C84.8399 34.8279 83.7884 34.3918 83.0129 33.6163C82.2375 32.8408 81.8013 31.7893 81.8001 30.6926C81.8013 29.5959 82.2375 28.5444 83.0129 27.769C83.7884 26.9935 84.8399 26.5573 85.9366 26.5562C87.0333 26.5573 88.0848 26.9935 88.8603 27.769C89.6357 28.5444 90.0719 29.5959 90.0731 30.6926C90.0719 31.7893 89.6357 32.8408 88.8603 33.6163C88.0848 34.3918 87.0333 34.8279 85.9366 34.8291ZM34.6252 38.4977H43.6247L39.1249 30.7049L34.6252 38.4977ZM45.1141 40.2177H33.1351C32.9842 40.2177 32.8359 40.1779 32.7053 40.1024C32.5746 40.027 32.4661 39.9184 32.3906 39.7877C32.3152 39.6571 32.2754 39.5088 32.2754 39.3579C32.2754 39.207 32.315 39.0588 32.3904 38.9281L38.3803 28.5537C38.4557 28.4229 38.5643 28.3142 38.6951 28.2387C38.8259 28.1631 38.9743 28.1233 39.1253 28.1233C39.2764 28.1233 39.4247 28.1631 39.5555 28.2387C39.6863 28.3142 39.7949 28.4229 39.8703 28.5537L45.8588 38.9281C45.9344 39.0588 45.9742 39.2072 45.9742 39.3583C45.9742 39.5094 45.9344 39.6578 45.8589 39.7886C45.7833 39.9194 45.6746 40.028 45.5438 40.1035C45.4129 40.1789 45.2644 40.2186 45.1134 40.2184L45.1141 40.2177Z" fill="white"/>
<path fill-rule="evenodd" clip-rule="evenodd" d="M45.1141 46.0302H33.1351C32.9841 46.0304 32.8358 45.9908 32.705 45.9153C32.5742 45.8399 32.4655 45.7314 32.39 45.6006C32.3145 45.4699 32.2748 45.3215 32.2749 45.1705C32.275 45.0195 32.3148 44.8712 32.3904 44.7405L35.7462 38.928C35.8027 38.8302 35.8778 38.7444 35.9675 38.6756C36.0571 38.6069 36.1593 38.5564 36.2685 38.5271C36.3776 38.4979 36.4914 38.4904 36.6034 38.5051C36.7154 38.5199 36.8234 38.5565 36.9212 38.613C37.0191 38.6695 37.1048 38.7447 37.1736 38.8343C37.2424 38.9239 37.2929 39.0262 37.3221 39.1353C37.3514 39.2444 37.3588 39.3582 37.3441 39.4702C37.3294 39.5822 37.2927 39.6902 37.2363 39.788L34.6252 44.3102H43.6248L41.0137 39.788C40.9572 39.6902 40.9206 39.5822 40.9059 39.4702C40.8911 39.3582 40.8986 39.2444 40.9279 39.1353C40.9571 39.0262 41.0076 38.9239 41.0764 38.8343C41.1451 38.7447 41.2309 38.6695 41.3287 38.613C41.4266 38.5565 41.5346 38.5199 41.6466 38.5051C41.7586 38.4904 41.8724 38.4979 41.9815 38.5271C42.0906 38.5564 42.1929 38.6069 42.2825 38.6756C42.3721 38.7444 42.4473 38.8302 42.5038 38.928L45.8595 44.7405C45.9351 44.8713 45.9749 45.0197 45.975 45.1708C45.975 45.3219 45.9352 45.4703 45.8596 45.6011C45.7841 45.7319 45.6754 45.8405 45.5445 45.916C45.4136 45.9914 45.2652 46.0304 45.1141 46.0302Z" fill="white"/>
<path fill-rule="evenodd" clip-rule="evenodd" d="M39.1252 50.9733C38.8971 50.9733 38.6783 50.8827 38.517 50.7214C38.3557 50.5602 38.2651 50.3414 38.2651 50.1133V45.1702C38.2651 44.9421 38.3557 44.7233 38.517 44.562C38.6783 44.4008 38.8971 44.3102 39.1252 44.3102C39.3532 44.3102 39.572 44.4008 39.7333 44.562C39.8946 44.7233 39.9852 44.9421 39.9852 45.1702V50.1126C39.9852 50.5884 39.6002 50.9733 39.1252 50.9733ZM49.3329 41.3545H55.1505L52.241 36.3162L49.3329 41.3545ZM56.6399 43.0753H47.8429C47.6918 43.0754 47.5434 43.0358 47.4125 42.9603C47.2816 42.8848 47.1729 42.7762 47.0974 42.6454C47.0218 42.5146 46.982 42.3662 46.982 42.2151C46.9821 42.0641 47.0219 41.9157 47.0975 41.7849L51.4963 34.1665C51.5719 34.0359 51.6806 33.9274 51.8113 33.8519C51.9421 33.7765 52.0904 33.7368 52.2414 33.7368C52.3923 33.7368 52.5406 33.7765 52.6714 33.8519C52.8022 33.9274 52.9108 34.0359 52.9864 34.1665L57.3846 41.7849C57.4601 41.9156 57.4999 42.0639 57.5 42.215C57.5 42.366 57.4603 42.5143 57.3848 42.6451C57.3094 42.7759 57.2008 42.8845 57.07 42.96C56.9392 43.0355 56.7909 43.0753 56.6399 43.0753Z" fill="white"/>
<path fill-rule="evenodd" clip-rule="evenodd" d="M56.6398 47.3437H47.8428C47.6917 47.3439 47.5432 47.3042 47.4124 47.2288C47.2815 47.1533 47.1728 47.0447 47.0973 46.9139C47.0217 46.7831 46.9819 46.6347 46.9819 46.4836C46.982 46.3325 47.0218 46.1841 47.0974 46.0533L49.5621 41.785C49.6761 41.5874 49.864 41.4432 50.0844 41.3841C50.3047 41.325 50.5395 41.3559 50.7371 41.4699C50.9347 41.584 51.0789 41.7718 51.138 41.9922C51.1971 42.2126 51.1662 42.4474 51.0522 42.645L49.3328 45.623H55.1504L53.4304 42.6457C53.3739 42.5479 53.3372 42.4398 53.3224 42.3278C53.3076 42.2158 53.3151 42.102 53.3443 41.9928C53.3735 41.8837 53.4239 41.7814 53.4927 41.6917C53.5614 41.602 53.6472 41.5268 53.745 41.4703C53.8429 41.4138 53.9509 41.3771 54.0629 41.3623C54.1749 41.3475 54.2888 41.355 54.3979 41.3842C54.5071 41.4134 54.6094 41.4638 54.699 41.5326C54.7887 41.6014 54.8639 41.6871 54.9204 41.785L57.3844 46.0533C57.46 46.1841 57.4998 46.3324 57.4999 46.4834C57.4999 46.6344 57.4602 46.7828 57.3847 46.9136C57.3093 47.0444 57.2007 47.153 57.0699 47.2285C56.9391 47.304 56.7908 47.3437 56.6398 47.3437Z" fill="white"/>
<path fill-rule="evenodd" clip-rule="evenodd" d="M52.2409 50.9733C52.0128 50.9733 51.794 50.8827 51.6328 50.7214C51.4715 50.5601 51.3809 50.3414 51.3809 50.1133V46.4829C51.3809 46.2547 51.4715 46.0358 51.6329 45.8745C51.7942 45.7131 52.0131 45.6225 52.2412 45.6225C52.4694 45.6225 52.6883 45.7131 52.8496 45.8745C53.011 46.0358 53.1016 46.2547 53.1016 46.4829V50.1126C53.1016 50.5883 52.7159 50.9733 52.2409 50.9733ZM60.2716 24.8216C59.9886 24.8222 59.7091 24.8838 59.4521 25.0024C59.1951 25.1209 58.9668 25.2936 58.7826 25.5085C58.5985 25.7234 58.463 25.9755 58.3853 26.2477C58.3076 26.5198 58.2895 26.8055 58.3324 27.0852C58.351 27.2055 58.3439 27.3283 58.3115 27.4456C58.2792 27.563 58.2223 27.6721 58.1446 27.7658C58.0669 27.8595 57.9702 27.9356 57.8609 27.9891C57.7516 28.0427 57.6322 28.0724 57.5106 28.0764C57.0018 28.0922 56.5192 28.3059 56.1656 28.6722C55.8121 29.0384 55.6154 29.5282 55.6175 30.0372C55.6175 31.1186 56.4977 31.9995 57.5798 31.9995H62.9634C63.4836 31.9989 63.9824 31.792 64.3503 31.4241C64.7181 31.0563 64.9251 30.5575 64.9256 30.0372C64.9278 29.5281 64.731 29.0382 64.3773 28.6719C64.0235 28.3057 63.5408 28.092 63.0319 28.0764C62.9104 28.0721 62.7913 28.0422 62.6823 27.9885C62.5732 27.9349 62.4768 27.8588 62.3992 27.7653C62.3217 27.6717 62.2648 27.5628 62.2323 27.4458C62.1998 27.3287 62.1925 27.206 62.2108 27.0859C62.2536 26.8062 62.2356 26.5205 62.1579 26.2484C62.0802 25.9763 61.9446 25.7241 61.7605 25.5092C61.5764 25.2943 61.3481 25.1217 61.0911 25.0031C60.8341 24.8846 60.5546 24.8222 60.2716 24.8216ZM62.9634 33.7195H57.5798C56.6034 33.7186 55.6673 33.3303 54.9768 32.64C54.2863 31.9497 53.8979 31.0136 53.8968 30.0372C53.8935 29.23 54.1568 28.4443 54.6457 27.8019C55.1346 27.1596 55.8219 26.6966 56.6008 26.4847C56.6764 25.563 57.0959 24.7035 57.7759 24.0767C58.456 23.45 59.3468 23.1019 60.2716 23.1016C61.1964 23.1017 62.0873 23.4498 62.7674 24.0765C63.4475 24.7033 63.8669 25.5629 63.9423 26.4847C64.7211 26.6967 65.4082 27.1598 65.897 27.8021C66.3858 28.4444 66.6489 29.2301 66.6457 30.0372C66.6445 31.0135 66.2562 31.9494 65.5659 32.6398C64.8756 33.3301 63.9396 33.7184 62.9634 33.7195Z" fill="white"/>
<defs>
<linearGradient id="paint0_linear_98_833" x1="-3.67709" y1="1.46485" x2="139.06" y2="10.4266" gradientUnits="userSpaceOnUse">
<stop stop-color="#EF1515"/>
<stop offset="1" stop-color="#F4B410"/>
</linearGradient>
</defs>
</svg>
