<svg width="126" height="125" viewBox="0 0 126 125" fill="none" xmlns="http://www.w3.org/2000/svg">
<path d="M63.0004 123.536C96.7093 123.536 124.036 96.2093 124.036 62.5004C124.036 28.7914 96.7093 1.46484 63.0004 1.46484C29.2914 1.46484 1.96484 28.7914 1.96484 62.5004C1.96484 96.2093 29.2914 123.536 63.0004 123.536Z" fill="url(#paint0_linear_98_815)"/>
<path fill-rule="evenodd" clip-rule="evenodd" d="M63.0004 38.2935C62.7721 38.2935 62.5532 38.2028 62.3918 38.0414C62.2303 37.88 62.1396 37.6611 62.1396 37.4328V24.3559C62.1396 24.1276 62.2303 23.9086 62.3918 23.7472C62.5532 23.5858 62.7721 23.4951 63.0004 23.4951C63.2287 23.4951 63.4476 23.5858 63.609 23.7472C63.7705 23.9086 63.8611 24.1276 63.8611 24.3559V37.4328C63.8611 37.9079 63.4755 38.2935 63.0004 38.2935Z" fill="white"/>
<path fill-rule="evenodd" clip-rule="evenodd" d="M68.4854 33.6741C66.4871 33.6741 64.4881 33.2402 62.6362 32.3722C62.5298 32.3271 62.4337 32.2609 62.3534 32.1778C62.2732 32.0947 62.2106 31.9962 62.1692 31.8883C62.1279 31.7804 62.1087 31.6653 62.1128 31.5499C62.117 31.4344 62.1443 31.321 62.1933 31.2163C62.2422 31.1117 62.3117 31.018 62.3977 30.9408C62.4836 30.8636 62.5842 30.8045 62.6935 30.767C62.8028 30.7296 62.9186 30.7145 63.0338 30.7228C63.149 30.731 63.2614 30.7624 63.3643 30.8151C65.9977 32.0442 68.8603 32.2929 71.5925 31.5511C70.4448 30.8966 69.45 30.1908 69.016 29.0914C68.942 28.9038 68.9363 28.6962 69 28.5048C69.0636 28.3135 69.1926 28.1506 69.3642 28.0447C70.2495 27.4947 71.1066 26.9122 71.8196 26.0262C68.7469 26.7915 65.5044 26.4769 62.6362 25.1352C62.5338 25.0874 62.4418 25.0199 62.3655 24.9365C62.2892 24.8532 62.2301 24.7556 62.1915 24.6494C62.1529 24.5432 62.1356 24.4305 62.1406 24.3176C62.1456 24.2047 62.1728 24.0939 62.2206 23.9915C62.2684 23.8891 62.3359 23.7972 62.4192 23.7209C62.5026 23.6446 62.6001 23.5854 62.7063 23.5469C62.8125 23.5083 62.9253 23.491 63.0382 23.496C63.1511 23.5009 63.2619 23.5281 63.3643 23.5759C66.5643 25.0725 70.1024 25.1157 73.3327 23.6992C73.6499 23.5601 74.0233 23.6242 74.2742 23.8664C74.5251 24.1065 74.6058 24.4756 74.4804 24.8C73.6362 26.9605 72.3415 28.1305 71.0057 29.0323C71.5103 29.5543 72.3523 30.0127 73.2325 30.4936C73.523 30.6514 73.815 30.8108 74.1055 30.978C74.2437 31.0572 74.3573 31.1732 74.4335 31.3131C74.5096 31.453 74.5455 31.6113 74.5369 31.7704C74.5284 31.9294 74.4759 32.083 74.3852 32.214C74.2945 32.3449 74.1692 32.4481 74.0233 32.5121C72.2779 33.2784 70.3917 33.6741 68.4854 33.6741ZM77.2644 101.505H48.7367C48.6235 101.505 48.5115 101.483 48.4069 101.44C48.3023 101.396 48.2072 101.333 48.1271 101.253C48.047 101.173 47.9835 101.078 47.9402 100.974C47.8968 100.869 47.8745 100.757 47.8745 100.644V59.3371C47.8745 59.1086 47.9653 58.8895 48.1268 58.7279C48.2884 58.5664 48.5075 58.4756 48.736 58.4756C48.9644 58.4756 49.1836 58.5664 49.3451 58.7279C49.5067 58.8895 49.5974 59.1086 49.5974 59.3371V99.784H76.4044V59.3363C76.4109 59.1125 76.5044 58.8999 76.665 58.7439C76.8257 58.5878 77.0408 58.5005 77.2648 58.5005C77.4888 58.5005 77.7039 58.5878 77.8646 58.7439C78.0252 58.8999 78.1187 59.1125 78.1252 59.3363V100.644C78.1252 101.12 77.7395 101.505 77.2644 101.505Z" fill="white"/>
<path fill-rule="evenodd" clip-rule="evenodd" d="M42.9069 57.8997L45.8755 60.8662L62.4069 45.1702C62.5672 45.0191 62.7792 44.9349 62.9995 44.9349C63.2198 44.9349 63.4318 45.0191 63.592 45.1702L80.1249 60.8662L83.0921 57.8997L63.0002 38.6253L42.9069 57.8997ZM80.1408 62.9279C79.9281 62.9279 79.7147 62.8486 79.5482 62.6915L63.0002 46.9804L46.4507 62.6907C46.2883 62.8452 46.0719 62.93 45.8477 62.9271C45.6236 62.9241 45.4095 62.8336 45.2512 62.6749L41.0693 58.4944C40.9884 58.4137 40.9245 58.3176 40.8814 58.2117C40.8383 58.1058 40.8169 57.9924 40.8184 57.8781C40.8199 57.6467 40.915 57.4239 41.0816 57.2653L62.4055 36.8108C62.5655 36.6576 62.7786 36.572 63.0002 36.572C63.2218 36.572 63.4349 36.6576 63.5949 36.8108L84.9188 57.2646C85.0854 57.4246 85.1805 57.6467 85.182 57.8774C85.1856 58.1088 85.094 58.3315 84.9311 58.4944L80.7492 62.6756C80.5827 62.8436 80.3614 62.9279 80.1408 62.9279Z" fill="white"/>
<path fill-rule="evenodd" clip-rule="evenodd" d="M44.0631 61.1314H24.4499C24.3026 61.1315 24.1577 61.0938 24.0291 61.0219C23.9005 60.95 23.7925 60.8463 23.7154 60.7207C23.6384 60.5952 23.5949 60.4519 23.5891 60.3047C23.5832 60.1575 23.6153 60.0112 23.6822 59.8799L28.8942 49.6246C29.0405 49.3362 29.3361 49.1553 29.6612 49.1553H49.8836C50.1075 49.1617 50.32 49.2552 50.4761 49.4159C50.6321 49.5765 50.7194 49.7917 50.7194 50.0156C50.7194 50.2396 50.6321 50.4548 50.4761 50.6154C50.32 50.7761 50.1075 50.8695 49.8836 50.876H30.1882L25.8513 59.4106H44.0631C44.287 59.4171 44.4996 59.5106 44.6556 59.6712C44.8117 59.8319 44.899 60.047 44.899 60.271C44.899 60.495 44.8117 60.7101 44.6556 60.8708C44.4996 61.0314 44.287 61.1249 44.0631 61.1314ZM101.55 61.1314H81.9372C81.7133 61.1249 81.5008 61.0314 81.3447 60.8708C81.1887 60.7101 81.1014 60.495 81.1014 60.271C81.1014 60.047 81.1887 59.8319 81.3447 59.6712C81.5008 59.5106 81.7133 59.4171 81.9372 59.4106H100.149L95.8122 50.8753H76.1168C75.8929 50.8688 75.6803 50.7753 75.5243 50.6147C75.3682 50.454 75.2809 50.2389 75.2809 50.0149C75.2809 49.791 75.3682 49.5758 75.5243 49.4152C75.6803 49.2545 75.8929 49.161 76.1168 49.1545H96.3391C96.6635 49.1545 96.9591 49.3362 97.1062 49.6246L102.318 59.8799C102.385 60.0113 102.416 60.1574 102.41 60.3045C102.404 60.4515 102.361 60.5946 102.284 60.7201C102.207 60.8455 102.099 60.9492 101.971 61.0212C101.842 61.0932 101.698 61.1311 101.55 61.1314Z" fill="white"/>
<path fill-rule="evenodd" clip-rule="evenodd" d="M48.7367 101.505H29.2511C29.138 101.505 29.026 101.483 28.9215 101.44C28.817 101.396 28.722 101.333 28.642 101.253C28.562 101.173 28.4985 101.078 28.4552 100.974C28.4119 100.869 28.3896 100.757 28.3896 100.644V60.2714C28.3896 60.0432 28.4803 59.8242 28.6418 59.6628C28.8032 59.5014 29.0221 59.4107 29.2504 59.4107C29.4787 59.4107 29.6976 59.5014 29.859 59.6628C30.0204 59.8242 30.1111 60.0432 30.1111 60.2714V99.7848H48.7367C48.9606 99.7913 49.1732 99.8848 49.3292 100.045C49.4853 100.206 49.5726 100.421 49.5726 100.645C49.5726 100.869 49.4853 101.084 49.3292 101.245C49.1732 101.406 48.9606 101.499 48.7367 101.506V101.505ZM96.7501 101.505H77.2645C77.0406 101.498 76.8281 101.405 76.672 101.244C76.516 101.084 76.4287 100.868 76.4287 100.644C76.4287 100.421 76.516 100.205 76.672 100.045C76.8281 99.8841 77.0406 99.7906 77.2645 99.7841H95.8894V60.2707C95.8959 60.0468 95.9893 59.8343 96.15 59.6782C96.3106 59.5222 96.5258 59.4349 96.7498 59.4349C96.9737 59.4349 97.1889 59.5222 97.3495 59.6782C97.5102 59.8343 97.6037 60.0468 97.6101 60.2707V100.644C97.6101 101.12 97.2252 101.505 96.7501 101.505ZM63.0003 57.6842C59.9905 57.6842 57.5417 60.1352 57.5417 63.1449C57.5417 66.1546 59.9905 68.6035 63.0003 68.6035C66.01 68.6035 68.4588 66.1546 68.4588 63.1449C68.4588 60.1352 66.01 57.6842 63.0003 57.6842ZM63.0003 70.3242C59.0404 70.3242 55.8202 67.1026 55.8202 63.1442C55.8202 59.1851 59.0404 55.9656 63.0003 55.9656C66.9579 55.9656 70.1803 59.1851 70.1803 63.1449C70.1803 67.1026 66.9579 70.3242 63.0003 70.3242Z" fill="white"/>
<path fill-rule="evenodd" clip-rule="evenodd" d="M61.288 65.7169C61.1178 65.7165 60.9516 65.6658 60.8102 65.5712C60.6688 65.4766 60.5585 65.3422 60.4933 65.1851C60.4281 65.0279 60.4109 64.855 60.4438 64.6881C60.4766 64.5211 60.5582 64.3677 60.6781 64.247L62.1401 62.7879V59.5309C62.1465 59.307 62.24 59.0945 62.4007 58.9384C62.5613 58.7824 62.7765 58.6951 63.0005 58.6951C63.2244 58.6951 63.4396 58.7824 63.6002 58.9384C63.7609 59.0945 63.8544 59.307 63.8608 59.5309V63.1447C63.8608 63.3718 63.7693 63.591 63.6078 63.7524L61.8957 65.4638C61.7292 65.6325 61.5086 65.7169 61.288 65.7169ZM55.5252 99.7839H70.4757V77.817H55.5245L55.5252 99.7839ZM71.3357 101.505H54.6645C54.4363 101.505 54.2175 101.414 54.0561 101.253C53.8947 101.092 53.8039 100.873 53.8037 100.645V76.9562C53.8037 76.4812 54.1894 76.0962 54.6645 76.0962H71.3357C71.8115 76.0962 72.1965 76.4819 72.1965 76.9562V100.645C72.1965 101.12 71.8108 101.505 71.3357 101.505Z" fill="white"/>
<path fill-rule="evenodd" clip-rule="evenodd" d="M71.3357 82.4278H54.6645C54.4406 82.4213 54.228 82.3278 54.072 82.1672C53.9159 82.0065 53.8286 81.7914 53.8286 81.5674C53.8286 81.3434 53.9159 81.1283 54.072 80.9676C54.228 80.807 54.4406 80.7135 54.6645 80.707H71.3357C71.5596 80.7135 71.7721 80.807 71.9282 80.9676C72.0843 81.1283 72.1716 81.3434 72.1716 81.5674C72.1716 81.7914 72.0843 82.0065 71.9282 82.1672C71.7721 82.3278 71.5596 82.4213 71.3357 82.4278Z" fill="white"/>
<path fill-rule="evenodd" clip-rule="evenodd" d="M63.0003 101.505C62.772 101.505 62.5531 101.414 62.3917 101.253C62.2302 101.091 62.1396 100.872 62.1396 100.644V81.5672C62.1396 81.3389 62.2302 81.1199 62.3917 80.9585C62.5531 80.7971 62.772 80.7064 63.0003 80.7064C63.2286 80.7064 63.4475 80.7971 63.6089 80.9585C63.7704 81.1199 63.861 81.3389 63.861 81.5672V100.644C63.861 101.12 63.4754 101.505 63.0003 101.505ZM36.7974 72.8358H41.1876V67.2964H36.7974V72.8358ZM42.0484 74.5565H35.9374C35.4616 74.5565 35.0767 74.173 35.0767 73.6965V66.4357C35.0767 65.9614 35.4616 65.5757 35.9367 65.5757H42.0484C42.5234 65.5757 42.9084 65.9614 42.9084 66.4364V73.6958C42.9084 74.173 42.5227 74.5565 42.0484 74.5565Z" fill="white"/>
<path fill-rule="evenodd" clip-rule="evenodd" d="M44.0647 74.5565H33.9203C33.6964 74.55 33.4839 74.4565 33.3278 74.2958C33.1718 74.1352 33.0845 73.92 33.0845 73.6961C33.0845 73.4721 33.1718 73.257 33.3278 73.0963C33.4839 72.9357 33.6964 72.8422 33.9203 72.8357H44.0647C44.2885 72.8422 44.5011 72.9357 44.6571 73.0963C44.8132 73.257 44.9005 73.4721 44.9005 73.6961C44.9005 73.92 44.8132 74.1352 44.6571 74.2958C44.5011 74.4565 44.2885 74.55 44.0647 74.5565ZM36.7974 87.5923H41.1876V82.053H36.7974V87.5923ZM42.0483 89.3131H35.9374C35.4616 89.3131 35.0766 88.9281 35.0766 88.453V81.1922C35.0766 80.7157 35.4616 80.3322 35.9366 80.3322H42.0483C42.5234 80.3322 42.9084 80.7157 42.9084 81.1922V88.453C42.9084 88.9274 42.5227 89.3131 42.0483 89.3131Z" fill="white"/>
<path fill-rule="evenodd" clip-rule="evenodd" d="M44.0647 89.3131H33.9203C33.6964 89.3066 33.4839 89.2132 33.3278 89.0525C33.1718 88.8919 33.0845 88.6767 33.0845 88.4527C33.0845 88.2288 33.1718 88.0136 33.3278 87.853C33.4839 87.6923 33.6964 87.5988 33.9203 87.5924H44.0647C44.2885 87.5988 44.5011 87.6923 44.6571 87.853C44.8132 88.0136 44.9005 88.2288 44.9005 88.4527C44.9005 88.6767 44.8132 88.8919 44.6571 89.0525C44.5011 89.2132 44.2885 89.3066 44.0647 89.3131ZM84.8129 72.8358H89.201V67.2964H84.8129V72.8358ZM90.0617 74.5565H83.9529C83.4771 74.5565 83.0921 74.173 83.0921 73.6965V66.4357C83.0921 65.9614 83.4771 65.5757 83.9522 65.5757H90.0617C90.5389 65.5757 90.9239 65.9614 90.9239 66.4364V73.6958C90.9239 74.173 90.5382 74.5565 90.0617 74.5565Z" fill="white"/>
<path fill-rule="evenodd" clip-rule="evenodd" d="M92.0803 74.5565H81.9359C81.7121 74.55 81.4995 74.4565 81.3435 74.2958C81.1874 74.1352 81.1001 73.92 81.1001 73.6961C81.1001 73.4721 81.1874 73.257 81.3435 73.0963C81.4995 72.9357 81.7121 72.8422 81.9359 72.8357H92.0803C92.3042 72.8422 92.5167 72.9357 92.6728 73.0963C92.8288 73.257 92.9161 73.4721 92.9161 73.6961C92.9161 73.92 92.8288 74.1352 92.6728 74.2958C92.5167 74.4565 92.3042 74.55 92.0803 74.5565ZM84.813 87.5923H89.2011V82.053H84.813V87.5923ZM90.0618 89.3131H83.953C83.4772 89.3131 83.0922 88.9281 83.0922 88.453V81.1922C83.0922 80.7157 83.4772 80.3322 83.9523 80.3322H90.0618C90.539 80.3322 90.924 80.7157 90.924 81.1922V88.453C90.924 88.9274 90.5383 89.3131 90.0618 89.3131Z" fill="white"/>
<path fill-rule="evenodd" clip-rule="evenodd" d="M92.0803 89.313H81.9359C81.7121 89.3066 81.4995 89.2131 81.3435 89.0524C81.1874 88.8918 81.1001 88.6766 81.1001 88.4527C81.1001 88.2287 81.1874 88.0136 81.3435 87.8529C81.4995 87.6923 81.7121 87.5988 81.9359 87.5923H92.0803C92.3042 87.5988 92.5167 87.6923 92.6728 87.8529C92.8288 88.0136 92.9161 88.2287 92.9161 88.4527C92.9161 88.6766 92.8288 88.8918 92.6728 89.0524C92.5167 89.2131 92.3042 89.3066 92.0803 89.313Z" fill="white"/>
<defs>
<linearGradient id="paint0_linear_98_815" x1="-3.67709" y1="1.46485" x2="139.06" y2="10.4266" gradientUnits="userSpaceOnUse">
<stop stop-color="#EF1515"/>
<stop offset="1" stop-color="#F4B410"/>
</linearGradient>
</defs>
</svg>
