<svg width="60" height="60" viewBox="0 0 60 60" fill="none" xmlns="http://www.w3.org/2000/svg">
<circle cx="30" cy="30" r="29.5" transform="rotate(-90 30 30)" fill="#FFFDF9" stroke="url(#paint0_linear_111_433)"/>
<path d="M14.2929 29.2929C13.9024 29.6834 13.9024 30.3166 14.2929 30.7071L20.6569 37.0711C21.0474 37.4616 21.6805 37.4616 22.0711 37.0711C22.4616 36.6805 22.4616 36.0474 22.0711 35.6569L16.4142 30L22.0711 24.3431C22.4616 23.9526 22.4616 23.3195 22.0711 22.9289C21.6805 22.5384 21.0474 22.5384 20.6569 22.9289L14.2929 29.2929ZM15 31L45 31L45 29L15 29L15 31Z" fill="#EF1515"/>
<defs>
<linearGradient id="paint0_linear_111_433" x1="-2.77311" y1="-9.38407e-07" x2="67.3849" y2="4.40484" gradientUnits="userSpaceOnUse">
<stop stop-color="#EF1515"/>
<stop offset="1" stop-color="#F4B410"/>
</linearGradient>
</defs>
</svg>
